-55.0 -20.0 -21.0 1 1 ctx-lh-middletemporal
-59.0 -20.0 -23.0 1 1 ctx-lh-middletemporal
-62.0 -20.0 -21.0 1 1 ctx-lh-middletemporal
-67.0 -21.0 -21.0 1 1 ctx-lh-middletemporal
0.0 59.0 -33.0 1 1 ctx-rh-medialorbitofrontal
-3.0 59.0 -33.0 1 1 ctx-lh-medialorbitofrontal
-7.0 59.0 -32.0 1 1 ctx-lh-medialorbitofrontal
-11.0 60.0 -32.0 1 1 ctx-lh-medialorbitofrontal
-33.0 -16.0 -11.0 1 1 ctx-lh-superiortemporal
-37.0 -16.0 -9.0 1 1 ctx-lh-superiortemporal
-40.0 -16.0 -10.0 1 1 ctx-lh-superiortemporal
-43.0 -16.5 -10.5 1 1 ctx-lh-superiortemporal
-46.0 -17.0 -9.0 1 1 ctx-lh-superiortemporal
-50.0 -17.0 -9.0 1 1 ctx-lh-superiortemporal
3.0 17.0 20.0 1 1 ctx-rh-posteriorcingulate
7.0 17.0 20.0 1 1 ctx-rh-posteriorcingulate
11.0 17.0 20.0 1 1 ctx-rh-posteriorcingulate
49.0 16.0 17.0 1 1 ctx-rh-precentral
52.0 16.0 17.0 1 1 ctx-rh-precentral
57.0 17.0 17.0 1 1 ctx-rh-precentral
3.0 29.0 36.0 1 1 ctx-rh-superiorfrontal
37.0 26.0 -25.0 1 1 ctx-rh-insula
40.0 26.0 -25.0 1 1 ctx-rh-insula
44.0 26.0 -25.0 1 1 ctx-rh-insula
47.0 26.0 -25.0 1 1 ctx-rh-insula
50.0 26.0 -25.0 1 1 ctx-rh-superiortemporal
56.0 27.0 -25.0 1 1 ctx-rh-superiortemporal
27.0 -5.0 -34.0 1 1 Right-Hippocampus
31.0 -4.0 -34.0 1 1 Right-Hippocampus
-50.0 24.0 -19.0 1 1 ctx-lh-precentral
-55.0 24.0 -19.0 1 1 ctx-lh-precentral
-59.0 24.0 -19.0 1 1 ctx-lh-precentral
-41.0 -6.0 -9.0 1 1 ctx-lh-transversetemporal
-24.0 -33.0 -27.0 1 1 ctx-lh-lingual
-27.0 -33.0 -27.0 1 1 ctx-lh-fusiform
-30.0 -34.0 -28.0 1 1 ctx-lh-fusiform
-35.0 -34.0 -28.0 1 1 ctx-lh-fusiform
-39.0 -35.0 -27.0 1 1 ctx-lh-inferiortemporal
-42.5 -36.0 -30.0 1 1 ctx-lh-fusiform
-58.0 -37.0 -30.0 1 1 ctx-lh-inferiortemporal
39.0 2.0 -23.0 1 1 ctx-rh-insula
42.0 4.0 -23.0 1 1 ctx-rh-insula
47.0 4.0 -22.0 1 1 ctx-rh-superiortemporal
57.0 5.0 -21.0 1 1 ctx-rh-superiortemporal
62.0 5.0 -22.0 1 1 ctx-rh-superiortemporal
-41.0 -4.0 -18.0 1 1 ctx-lh-transversetemporal
-45.0 -4.0 -20.0 1 1 ctx-lh-superiortemporal
-3.0 -35.0 6.0 1 1 ctx-lh-isthmuscingulate
-7.0 -35.0 6.0 1 1 ctx-lh-isthmuscingulate
-36.0 -34.0 7.0 1 1 ctx-lh-inferiorparietal
-34.0 28.0 -21.0 1 1 ctx-lh-insula
-34.0 29.0 -18.0 1 1 ctx-lh-insula
-35.0 31.0 -14.0 1 1 ctx-lh-insula
-34.0 34.0 -10.0 1 1 ctx-lh-parsopercularis
-32.0 3.0 -15.0 1 1 Left-Putamen
-31.0 1.0 -12.0 1 1 Left-Putamen
-31.0 -1.5 -7.0 1 1 ctx-lh-insula
-42.0 15.0 -26.0 1 1 ctx-lh-insula
-46.0 15.0 -24.0 1 1 ctx-lh-superiortemporal
-49.0 14.0 -23.0 1 1 ctx-lh-superiortemporal
-53.0 14.0 -23.0 1 1 ctx-lh-superiortemporal
-59.0 13.0 -22.0 1 1 ctx-lh-superiortemporal
-48.0 -6.0 -9.0 1 1 ctx-lh-transversetemporal
-53.0 -6.0 -9.0 1 1 ctx-lh-superiortemporal
50.0 16.0 -13.0 1 1 ctx-rh-precentral
54.0 16.0 -12.0 1 1 ctx-rh-precentral
58.0 16.0 -13.0 1 1 ctx-rh-precentral
41.0 41.0 -15.0 1 1 ctx-rh-parstriangularis
44.0 41.0 -15.0 1 1 ctx-rh-parsopercularis
48.0 41.0 -15.0 1 1 ctx-rh-parsopercularis
51.0 41.0 -15.0 1 1 ctx-rh-parstriangularis
55.0 42.0 -15.0 1 1 ctx-rh-parsopercularis
38.0 33.0 -18.0 1 1 ctx-rh-insula
37.0 36.0 -14.0 1 1 ctx-rh-parsopercularis
37.0 67.0 -12.0 1 1 ctx-rh-rostralmiddlefrontal
37.0 71.0 -9.0 1 1 ctx-rh-rostralmiddlefrontal
4.0 49.0 -27.0 1 1 ctx-rh-rostralanteriorcingulate
9.0 49.0 -27.0 1 1 ctx-rh-rostralanteriorcingulate
32.0 -18.0 -33.0 1 1 ctx-rh-parahippocampal
35.0 -18.0 -34.0 1 1 ctx-rh-fusiform
39.0 -18.0 -33.0 1 1 ctx-rh-fusiform
47.0 -11.0 -16.0 1 1 ctx-rh-superiortemporal
60.0 -12.0 -15.0 1 1 ctx-rh-superiortemporal
64.0 -11.0 -16.0 1 1 ctx-rh-superiortemporal
38.0 26.0 -26.5 1 1 ctx-rh-insula
43.0 25.0 -26.0 1 1 ctx-rh-insula
46.0 26.0 -25.0 1 1 ctx-rh-insula
50.0 25.0 -24.0 1 1 ctx-rh-superiortemporal
54.0 26.0 -22.0 1 1 ctx-rh-precentral
39.0 20.0 -14.0 1 1 ctx-rh-insula
42.0 19.0 -14.0 1 1 ctx-rh-insula
46.0 19.0 -13.0 1 1 ctx-rh-precentral
50.0 20.0 -13.0 1 1 ctx-rh-precentral
54.0 20.0 -13.0 1 1 ctx-rh-precentral
57.0 20.0 -12.0 1 1 ctx-rh-precentral
62.0 20.0 -11.0 1 1 ctx-rh-precentral
36.0 -10.0 4.0 1 1 ctx-rh-supramarginal
39.0 -10.0 4.0 1 1 ctx-rh-supramarginal
43.0 -10.0 4.5 1 1 ctx-rh-supramarginal
48.0 -10.0 5.0 1 1 ctx-rh-supramarginal
43.0 -1.0 -12.0 1 1 ctx-rh-transversetemporal
41.0 -4.0 -6.0 1 1 ctx-rh-transversetemporal
40.0 -8.0 12.0 1 1 ctx-rh-supramarginal
39.0 -10.0 17.0 1 1 ctx-rh-supramarginal
44.0 11.0 -33.0 1 1 ctx-rh-superiortemporal
42.0 11.0 -29.0 1 1 ctx-rh-insula
42.0 9.0 -25.0 1 1 ctx-rh-insula
42.0 8.0 -21.0 1 1 ctx-rh-insula
41.0 8.0 -17.0 1 1 ctx-rh-insula
42.0 5.0 -12.0 1 1 ctx-rh-insula
37.0 -2.0 22.0 1 1 ctx-rh-precentral
38.0 22.0 -29.0 1 1 ctx-rh-insula
41.0 23.5 -25.0 1 1 ctx-rh-insula
41.0 25.0 -19.0 1 1 ctx-rh-insula
46.0 36.0 8.0 1 1 ctx-rh-rostralmiddlefrontal
47.0 42.0 22.0 1 1 ctx-rh-caudalmiddlefrontal
4.0 4.0 20.0 1 1 ctx-rh-posteriorcingulate
8.0 3.0 20.0 1 1 ctx-rh-posteriorcingulate
29.5 3.0 20.0 1 1 ctx-rh-precentral
34.0 4.0 20.0 1 1 ctx-rh-precentral
39.0 4.0 21.0 1 1 ctx-rh-precentral
59.0 5.0 21.0 1 1 ctx-rh-postcentral
3.0 -3.0 39.0 1 1 ctx-rh-paracentral
6.0 -3.0 39.0 1 1 ctx-rh-paracentral
11.0 -3.0 40.0 1 1 ctx-rh-paracentral
29.0 -4.0 43.0 1 1 ctx-rh-precentral
33.0 -4.0 43.0 1 1 ctx-rh-precentral
38.0 -4.0 43.0 1 1 ctx-rh-precentral
-20.0 -7.0 -35.0 1 1 Left-Hippocampus
-24.0 -7.0 -34.0 1 1 Left-Hippocampus
-28.0 -7.0 -34.0 1 1 Left-Hippocampus
-69.0 -9.0 -36.0 1 1 ctx-lh-middletemporal
-4.0 52.0 12.0 1 1 ctx-lh-superiorfrontal
-7.0 51.0 12.0 1 1 ctx-lh-superiorfrontal
-11.0 52.0 9.0 1 1 ctx-lh-superiorfrontal
-33.0 51.0 7.0 1 1 ctx-lh-rostralmiddlefrontal
-43.0 50.0 7.0 1 1 ctx-lh-rostralmiddlefrontal
-41.0 36.0 10.0 1 1 ctx-lh-caudalmiddlefrontal
-44.5 35.0 10.0 1 1 ctx-lh-rostralmiddlefrontal
-51.0 47.0 -12.0 1 1 ctx-lh-parstriangularis
-1.0 29.0 30.0 1 1 ctx-lh-superiorfrontal
-3.0 31.0 30.0 1 1 ctx-lh-superiorfrontal
-5.0 31.0 32.0 1 1 ctx-lh-superiorfrontal
-6.0 33.0 35.0 1 1 ctx-lh-superiorfrontal
-2.0 34.0 44.0 1 1 ctx-lh-superiorfrontal
-5.0 34.0 44.0 1 1 ctx-lh-superiorfrontal
-9.0 33.0 43.0 1 1 ctx-lh-superiorfrontal
-3.0 21.0 45.0 1 1 ctx-lh-superiorfrontal
-6.0 21.0 43.0 1 1 ctx-lh-superiorfrontal
-16.0 19.0 41.0 1 1 ctx-lh-superiorfrontal
-2.0 1.0 48.0 1 1 ctx-lh-paracentral
-16.0 2.0 47.0 1 1 ctx-lh-precentral
-32.0 38.0 -20.0 1 1 ctx-lh-insula
-31.0 41.0 -16.0 1 1 ctx-lh-insula
8.0 16.0 35.0 1 1 ctx-rh-superiorfrontal
11.0 17.0 37.0 1 1 ctx-rh-superiorfrontal
14.0 17.0 37.0 1 1 ctx-rh-superiorfrontal
18.0 17.0 36.0 1 1 ctx-rh-superiorfrontal
21.0 17.0 35.0 1 1 ctx-rh-superiorfrontal
25.0 17.0 36.0 1 1 ctx-rh-superiorfrontal
28.0 17.0 36.0 1 1 ctx-rh-caudalmiddlefrontal
32.0 17.0 37.0 1 1 ctx-rh-caudalmiddlefrontal
36.0 17.0 38.0 1 1 ctx-rh-caudalmiddlefrontal
41.0 18.0 38.0 1 1 ctx-rh-caudalmiddlefrontal
46.0 19.0 38.0 1 1 ctx-rh-caudalmiddlefrontal
6.0 -1.0 40.0 1 1 ctx-rh-paracentral
9.0 -1.0 39.0 1 1 ctx-rh-paracentral
15.0 -1.0 39.0 1 1 ctx-rh-precentral
31.0 -1.0 37.0 1 1 ctx-rh-precentral
35.0 0.0 38.0 1 1 ctx-rh-precentral
39.0 0.0 39.0 1 1 ctx-rh-precentral
43.0 1.0 38.0 1 1 ctx-rh-precentral
48.0 2.0 38.0 1 1 ctx-rh-postcentral
33.0 71.0 12.0 1 1 ctx-rh-rostralmiddlefrontal
38.0 72.0 12.0 1 1 ctx-rh-rostralmiddlefrontal
7.0 12.0 23.0 1 1 ctx-rh-posteriorcingulate
10.0 13.0 24.0 1 1 ctx-rh-superiorfrontal
20.0 13.0 24.0 1 1 ctx-rh-precentral
24.0 13.0 25.0 1 1 ctx-rh-precentral
28.0 14.0 25.0 1 1 ctx-rh-caudalmiddlefrontal
31.0 14.0 26.0 1 1 ctx-rh-caudalmiddlefrontal
35.0 14.0 25.0 1 1 ctx-rh-precentral
38.0 14.0 27.0 1 1 ctx-rh-precentral
42.0 15.0 27.0 1 1 ctx-rh-precentral
46.0 16.0 29.0 1 1 ctx-rh-precentral
24.0 -32.0 -34.0 1 1 ctx-rh-fusiform
28.0 -32.0 -33.0 1 1 ctx-rh-fusiform
32.0 -32.0 -33.0 1 1 ctx-rh-fusiform
36.0 -32.0 -33.0 1 1 ctx-rh-fusiform
40.0 -30.0 -34.0 1 1 ctx-rh-fusiform
36.0 27.0 -5.0 1 1 ctx-rh-parsopercularis
43.0 -7.0 3.0 1 1 ctx-rh-supramarginal
47.0 -8.0 3.0 1 1 ctx-rh-supramarginal
9.0 -50.0 -22.0 1 1 ctx-rh-lingual
14.0 -49.0 -22.0 1 1 ctx-rh-lingual
6.0 -42.0 5.0 1 1 ctx-rh-precuneus
10.0 -41.0 6.0 1 1 ctx-rh-precuneus
15.0 -41.0 6.0 1 1 ctx-rh-precuneus
44.0 -42.0 3.0 1 1 ctx-rh-inferiorparietal
48.0 -42.0 3.0 1 1 ctx-rh-inferiorparietal
52.0 -42.0 2.0 1 1 ctx-rh-inferiorparietal
56.0 -41.0 3.0 1 1 ctx-rh-inferiorparietal
61.0 -41.0 5.0 1 1 ctx-rh-inferiorparietal
64.0 26.0 -50.0 1 1 ctx-rh-middletemporal
33.0 36.0 -5.0 1 1 ctx-rh-parsopercularis
22.0 36.0 24.0 1 1 ctx-rh-caudalmiddlefrontal
20.0 38.0 29.0 1 1 ctx-rh-superiorfrontal
23.0 40.0 12.0 1 1 ctx-rh-superiorfrontal
22.0 40.0 17.0 1 1 ctx-rh-superiorfrontal
20.0 42.0 22.0 1 1 ctx-rh-superiorfrontal
33.0 31.0 0.0 1 1 ctx-rh-parsopercularis
37.0 30.0 3.0 1 1 ctx-rh-parsopercularis
42.0 31.0 4.0 1 1 ctx-rh-parsopercularis
52.0 31.0 7.0 1 1 ctx-rh-precentral
57.0 32.0 9.0 1 1 ctx-rh-precentral
-8.0 59.0 -35.0 1 1 ctx-lh-medialorbitofrontal
-46.0 14.0 22.0 1 1 ctx-lh-precentral
-51.0 15.0 24.0 1 1 ctx-lh-precentral
-57.0 15.0 24.0 1 1 ctx-lh-precentral
-4.0 26.0 31.0 1 1 ctx-lh-superiorfrontal
-7.0 28.0 34.0 1 1 ctx-lh-superiorfrontal
-9.0 30.0 37.0 1 1 ctx-lh-superiorfrontal
-11.0 31.0 40.0 1 1 ctx-lh-superiorfrontal
-15.0 32.5 44.0 1 1 ctx-lh-superiorfrontal
-5.0 -30.0 35.0 1 1 ctx-lh-precuneus
-10.0 -31.0 35.0 1 1 ctx-lh-precuneus
-26.0 -32.0 34.0 1 1 ctx-lh-superiorparietal
-35.0 11.0 -22.0 1 1 ctx-lh-insula
-39.0 11.0 -22.0 1 1 ctx-lh-insula
-58.0 8.0 -21.0 1 1 ctx-lh-superiortemporal
51.0 -12.0 5.0 1 1 ctx-rh-supramarginal
41.0 -1.0 15.0 1 1 ctx-rh-precentral
41.0 -4.0 19.0 1 1 ctx-rh-supramarginal
-59.0 11.0 -2.0 1 1 ctx-lh-postcentral
-63.0 12.0 -2.0 1 1 ctx-lh-postcentral
-68.0 10.0 -3.0 1 1 ctx-lh-postcentral
-59.0 0.0 3.0 1 1 ctx-lh-postcentral
-62.0 0.0 3.0 1 1 ctx-lh-postcentral
-67.0 0.0 4.0 1 1 ctx-lh-postcentral
5.0 -6.0 39.0 1 1 ctx-rh-paracentral
41.0 -5.0 40.0 1 1 ctx-rh-precentral
45.0 -5.0 41.0 1 1 ctx-rh-postcentral
50.0 -4.0 42.0 1 1 ctx-rh-postcentral
4.0 9.0 43.0 1 1 ctx-rh-paracentral
14.0 9.0 44.0 1 1 ctx-rh-precentral
19.0 10.0 44.0 1 1 ctx-rh-precentral
23.0 10.0 44.0 1 1 ctx-rh-precentral
28.0 9.0 43.0 1 1 ctx-rh-precentral
39.0 8.0 43.0 1 1 ctx-rh-precentral
44.0 9.0 44.0 1 1 ctx-rh-precentral
27.0 -24.0 -39.0 1 1 ctx-rh-fusiform
31.0 -24.0 -39.0 1 1 ctx-rh-fusiform
35.0 -24.0 -39.0 1 1 ctx-rh-fusiform
46.0 -25.0 -39.0 1 1 ctx-rh-fusiform
50.0 -25.0 -40.0 1 1 ctx-rh-inferiortemporal
56.0 -24.0 -40.0 1 1 ctx-rh-inferiortemporal
60.0 -24.0 -40.0 1 1 ctx-rh-inferiortemporal
64.0 -22.0 -40.0 1 1 ctx-rh-middletemporal
69.0 -23.0 -41.0 1 1 ctx-rh-middletemporal
-36.0 15.0 -23.0 1 1 ctx-lh-insula
-39.0 15.0 -23.0 1 1 ctx-lh-insula
-42.0 15.0 -23.0 1 1 ctx-lh-insula
-47.0 14.0 -22.0 1 1 ctx-lh-superiortemporal
-59.0 12.0 -20.0 1 1 ctx-lh-superiortemporal
-10.0 48.0 31.0 1 1 ctx-lh-superiorfrontal
-6.0 32.0 27.0 1 1 ctx-lh-superiorfrontal
-9.0 32.0 26.5 1 1 ctx-lh-superiorfrontal
-6.0 0.0 37.0 1 1 ctx-lh-paracentral
-14.0 1.0 37.0 1 1 ctx-lh-precentral
-19.0 1.0 38.0 1 1 ctx-lh-precentral
-23.0 1.0 38.0 1 1 ctx-lh-precentral
-25.5 1.0 38.5 1 1 ctx-lh-precentral
-29.0 0.0 40.0 1 1 ctx-lh-precentral
-33.0 0.0 42.0 1 1 ctx-lh-precentral
-37.0 0.0 44.0 1 1 ctx-lh-precentral
-19.0 57.0 11.0 1 1 ctx-lh-rostralmiddlefrontal
-21.0 57.0 13.0 1 1 ctx-lh-rostralmiddlefrontal
-25.5 58.0 12.0 1 1 ctx-lh-rostralmiddlefrontal
-29.0 58.0 13.0 1 1 ctx-lh-rostralmiddlefrontal
-7.0 38.0 5.0 1 1 ctx-lh-caudalanteriorcingulate
-45.5 46.0 5.0 1 1 ctx-lh-rostralmiddlefrontal
-49.0 46.0 5.0 1 1 ctx-lh-rostralmiddlefrontal
-3.0 19.0 20.0 1 1 ctx-lh-posteriorcingulate
-6.5 19.0 18.0 1 1 ctx-lh-posteriorcingulate
-32.0 51.0 -10.0 1 1 ctx-lh-parstriangularis
-40.0 51.0 -9.0 1 1 ctx-lh-parstriangularis
-44.0 50.0 -8.0 1 1 ctx-lh-parstriangularis
-48.0 50.0 -7.0 1 1 ctx-lh-parstriangularis
-51.0 49.0 -6.0 1 1 ctx-lh-parsopercularis
-41.0 36.5 -10.0 1 1 ctx-lh-parsopercularis
-44.5 36.0 -10.0 1 1 ctx-lh-parsopercularis
-48.0 35.0 -11.0 1 1 ctx-lh-parsopercularis
-51.0 34.0 -11.0 1 1 ctx-lh-parsopercularis
-55.0 34.0 -11.0 1 1 ctx-lh-parsopercularis
-37.0 35.0 -28.0 1 1 ctx-lh-insula
-35.0 37.0 -25.0 1 1 ctx-lh-insula
-33.5 38.0 -24.0 1 1 ctx-lh-insula
-33.0 40.0 -20.0 1 1 ctx-lh-insula
-31.0 42.0 -18.0 1 1 ctx-lh-insula
-41.0 20.0 -31.0 1 1 ctx-lh-insula
-45.0 20.0 -30.0 1 1 ctx-lh-superiortemporal
-49.5 21.0 -30.0 1 1 ctx-lh-superiortemporal
-53.0 21.5 -27.5 1 1 ctx-lh-superiortemporal
-56.0 23.0 -27.0 1 1 ctx-lh-superiortemporal
-59.0 23.5 -26.0 1 1 ctx-lh-superiortemporal
-28.0 4.0 -35.0 1 1 Left-Hippocampus
-31.0 4.0 -35.5 1 1 Left-Hippocampus
-4.0 -20.0 12.0 1 1 ctx-lh-isthmuscingulate
-8.0 -20.0 12.0 1 1 ctx-lh-isthmuscingulate
-12.0 -21.0 12.0 1 1 ctx-lh-isthmuscingulate
-28.0 45.0 1.0 1 1 ctx-lh-rostralmiddlefrontal
-27.0 47.0 6.0 1 1 ctx-lh-rostralmiddlefrontal
0.0 35.0 12.0 1 1 ctx-lh-caudalanteriorcingulate
-14.0 33.0 13.0 1 1 ctx-lh-superiorfrontal
-30.0 32.0 16.0 1 1 ctx-lh-caudalmiddlefrontal
-34.0 32.0 16.0 1 1 ctx-lh-caudalmiddlefrontal
-38.0 33.0 17.0 1 1 ctx-lh-caudalmiddlefrontal
-41.0 33.0 18.5 1 1 ctx-lh-caudalmiddlefrontal
-2.0 37.0 -5.0 1 1 ctx-lh-caudalanteriorcingulate
-6.0 37.0 -6.0 1 1 Left-Caudate
-34.0 36.0 -5.0 1 1 ctx-lh-parsopercularis
-39.0 36.0 -4.0 1 1 ctx-lh-parsopercularis
-43.0 37.0 -3.0 1 1 ctx-lh-parsopercularis
-46.0 37.0 -2.0 1 1 ctx-lh-parsopercularis
-49.0 36.0 -2.0 1 1 ctx-lh-parsopercularis
-54.0 36.0 -1.0 1 1 ctx-lh-parsopercularis
-44.0 28.0 -6.0 1 1 ctx-lh-parsopercularis
-48.0 28.0 -6.0 1 1 ctx-lh-parsopercularis
-52.0 29.0 -6.0 1 1 ctx-lh-parsopercularis
-57.0 28.0 -6.0 1 1 ctx-lh-precentral
-11.0 18.0 14.0 1 1 ctx-lh-posteriorcingulate
-16.0 17.0 14.0 1 1 ctx-lh-posteriorcingulate
-20.0 16.0 14.0 1 1 Left-Caudate
-24.0 16.0 15.0 1 1 ctx-lh-caudalmiddlefrontal
-29.0 16.0 16.0 1 1 ctx-lh-caudalmiddlefrontal
-33.0 16.0 17.0 1 1 ctx-lh-precentral
-37.0 16.0 18.0 1 1 ctx-lh-precentral
-41.0 17.0 18.0 1 1 ctx-lh-caudalmiddlefrontal
-46.0 16.0 20.0 1 1 ctx-lh-precentral
-30.0 3.0 20.0 1 1 ctx-lh-precentral
-35.0 3.0 21.0 1 1 ctx-lh-precentral
-2.0 -7.0 14.0 1 1 ctx-lh-posteriorcingulate
-5.5 -7.0 14.0 1 1 ctx-lh-posteriorcingulate
-28.0 -9.0 15.0 1 1 ctx-lh-supramarginal
47.0 -23.0 33.0 1 1 ctx-rh-superiorparietal
51.0 -23.0 32.0 1 1 ctx-rh-superiorparietal
56.0 -22.0 34.0 1 1 ctx-rh-inferiorparietal
33.0 50.0 -2.0 1 1 ctx-rh-rostralmiddlefrontal
37.0 50.0 -2.0 1 1 ctx-rh-rostralmiddlefrontal
41.0 50.0 -2.0 1 1 ctx-rh-rostralmiddlefrontal
1.0 63.0 10.0 1 1 ctx-rh-superiorfrontal
5.0 63.0 10.0 1 1 ctx-rh-superiorfrontal
17.0 64.0 12.0 1 1 ctx-rh-superiorfrontal
1.0 42.0 29.0 1 1 ctx-rh-superiorfrontal
4.0 43.0 29.0 1 1 ctx-rh-superiorfrontal
8.0 42.0 29.0 1 1 ctx-rh-superiorfrontal
12.0 43.0 29.0 1 1 ctx-rh-superiorfrontal
16.0 43.0 30.0 1 1 ctx-rh-superiorfrontal
22.0 42.0 29.0 1 1 ctx-rh-superiorfrontal
31.0 27.0 -11.0 1 1 ctx-rh-insula
35.0 27.0 -11.0 1 1 ctx-rh-insula
39.0 26.0 -11.0 1 1 ctx-rh-parsopercularis
43.0 27.0 -10.0 1 1 ctx-rh-parsopercularis
46.0 25.0 -10.0 1 1 ctx-rh-parsopercularis
51.0 27.0 -10.0 1 1 ctx-rh-parsopercularis
3.0 22.0 34.0 1 1 ctx-rh-superiorfrontal
22.0 21.0 33.0 1 1 ctx-rh-superiorfrontal
26.0 20.0 34.0 1 1 ctx-rh-caudalmiddlefrontal
30.0 19.0 33.0 1 1 ctx-rh-caudalmiddlefrontal
35.0 19.0 34.0 1 1 ctx-rh-caudalmiddlefrontal
4.0 15.0 14.0 1 1 ctx-rh-posteriorcingulate
43.0 15.0 16.0 1 1 ctx-rh-precentral
48.0 14.0 16.0 1 1 ctx-rh-precentral
52.0 15.0 17.5 1 1 ctx-rh-precentral
36.0 17.0 -2.0 1 1 ctx-rh-precentral
40.0 17.0 0.0 1 1 ctx-rh-precentral
46.0 16.0 0.0 1 1 ctx-rh-postcentral
55.0 15.5 1.0 1 1 ctx-rh-precentral
60.0 15.0 1.0 1 1 ctx-rh-precentral
50.0 -20.0 12.0 1 1 ctx-rh-supramarginal
55.0 -20.0 12.0 1 1 ctx-rh-supramarginal
-38.0 28.0 -14.0 1 1 ctx-lh-parsopercularis
-42.0 28.0 -13.0 1 1 ctx-lh-parsopercularis
-45.0 27.0 -12.0 1 1 ctx-lh-parsopercularis
45.0 35.0 2.0 1 1 ctx-rh-parsopercularis
49.0 35.0 2.0 1 1 ctx-rh-parsopercularis
53.0 35.0 2.0 1 1 ctx-rh-parsopercularis
-28.0 59.0 7.0 1 1 ctx-lh-rostralmiddlefrontal
-29.0 54.0 -1.0 1 1 ctx-lh-rostralmiddlefrontal
-27.0 55.0 3.0 1 1 ctx-lh-rostralmiddlefrontal
42.0 17.0 15.0 1 1 ctx-rh-precentral
47.0 17.0 16.0 1 1 ctx-rh-precentral
43.0 51.0 3.0 1 1 ctx-rh-rostralmiddlefrontal
48.0 51.0 4.0 1 1 ctx-rh-rostralmiddlefrontal
32.0 63.0 -4.0 1 1 ctx-rh-rostralmiddlefrontal
37.0 -18.0 24.0 1 1 ctx-rh-superiorparietal
36.0 -26.0 36.0 1 1 ctx-rh-superiorparietal
-56.0 5.0 -19.0 1 1 ctx-lh-superiortemporal
-47.0 -12.0 -16.0 1 1 ctx-lh-superiortemporal
-51.0 -12.0 -15.0 1 1 ctx-lh-superiortemporal
-56.0 -12.0 -14.0 1 1 ctx-lh-superiortemporal
-59.0 -13.0 -14.0 1 1 ctx-lh-bankssts
-64.0 -13.0 -15.0 1 1 ctx-lh-superiortemporal
0.0 -30.0 5.0 1 1 ctx-lh-isthmuscingulate
-4.0 -31.0 5.0 1 1 ctx-lh-isthmuscingulate
-8.0 -31.0 3.0 1 1 ctx-lh-isthmuscingulate
0.0 55.0 -36.0 1 1 ctx-rh-medialorbitofrontal
-3.0 54.0 -35.5 1 1 ctx-lh-medialorbitofrontal
-7.0 55.0 -36.0 1 1 ctx-lh-medialorbitofrontal
-17.0 53.0 -39.0 1 1 ctx-lh-lateralorbitofrontal
-21.0 52.0 -39.0 1 1 ctx-lh-lateralorbitofrontal
-27.0 52.0 -39.0 1 1 ctx-lh-lateralorbitofrontal
-25.0 -36.5 -37.0 1 1 ctx-lh-fusiform
-29.0 -36.0 -38.0 1 1 ctx-lh-fusiform
-33.0 -37.0 -38.0 1 1 ctx-lh-fusiform
-32.0 -36.0 -24.0 1 1 ctx-lh-fusiform
-49.0 -37.0 -24.0 1 1 ctx-lh-inferiortemporal
-53.0 -37.0 -25.0 1 1 ctx-lh-inferiortemporal
-58.0 -38.0 -25.0 1 1 ctx-lh-middletemporal
-34.0 -13.0 3.0 1 1 ctx-lh-supramarginal
-38.0 -12.0 3.0 1 1 ctx-lh-supramarginal
-41.0 -12.0 2.0 1 1 ctx-lh-supramarginal
-44.0 -12.0 2.0 1 1 ctx-lh-supramarginal
-47.0 -12.0 2.0 1 1 ctx-lh-supramarginal
-52.0 -12.0 2.0 1 1 ctx-lh-supramarginal
-49.0 6.0 18.0 1 1 ctx-lh-precentral
-53.0 7.0 17.5 1 1 ctx-lh-postcentral
-58.0 7.0 18.0 1 1 ctx-lh-postcentral
-63.0 7.0 18.0 1 1 ctx-lh-postcentral
-34.0 -9.0 13.0 1 1 ctx-lh-supramarginal
-49.0 -9.0 13.0 1 1 ctx-lh-supramarginal
-53.0 -9.0 13.0 1 1 ctx-lh-supramarginal
-57.0 -8.0 13.0 1 1 ctx-lh-supramarginal
-62.0 -8.0 13.0 1 1 ctx-lh-supramarginal
-3.0 2.0 35.0 1 1 ctx-lh-superiorfrontal
-8.0 2.0 33.0 1 1 ctx-lh-superiorfrontal
-30.0 3.0 33.5 1 1 ctx-lh-precentral
-34.0 1.0 33.0 1 1 ctx-lh-precentral
-37.0 1.0 33.0 1 1 ctx-lh-precentral
-41.0 1.0 33.0 1 1 ctx-lh-postcentral
-45.0 2.0 32.0 1 1 ctx-lh-postcentral
-49.0 2.0 33.0 1 1 ctx-lh-postcentral
-55.0 2.0 33.0 1 1 ctx-lh-postcentral
-6.0 -8.0 50.0 1 1 ctx-lh-paracentral
-11.0 -8.0 50.0 1 1 ctx-lh-precentral
-15.0 -7.0 50.0 1 1 ctx-lh-precentral
-26.0 -8.0 50.0 1 1 ctx-lh-postcentral
-29.5 -9.0 50.0 1 1 ctx-lh-postcentral
-33.0 -9.0 47.0 1 1 ctx-lh-postcentral
-36.0 -9.0 48.0 1 1 ctx-lh-postcentral
-40.0 -11.0 48.0 1 1 ctx-lh-postcentral
-46.0 -10.0 47.0 1 1 ctx-lh-postcentral
-6.0 -22.0 40.0 1 1 ctx-lh-paracentral
-9.0 -23.0 39.0 1 1 ctx-lh-paracentral
-14.0 -23.0 38.0 1 1 ctx-lh-paracentral
-33.0 -24.0 35.0 1 1 ctx-lh-superiorparietal
-37.0 -25.0 34.0 1 1 ctx-lh-superiorparietal
-40.0 -26.0 34.0 1 1 ctx-lh-superiorparietal
-43.0 -25.0 34.0 1 1 ctx-lh-supramarginal
-48.0 -25.5 33.0 1 1 ctx-lh-supramarginal
-3.0 -26.0 24.0 1 1 ctx-lh-precuneus
-6.0 -26.0 25.0 1 1 ctx-lh-precuneus
-10.0 -26.0 24.0 1 1 ctx-lh-precuneus
-32.0 -28.0 20.0 1 1 ctx-lh-superiorparietal
-35.0 -28.0 19.0 1 1 ctx-lh-superiorparietal
-38.0 -28.0 19.0 1 1 ctx-lh-supramarginal
-42.0 -27.0 18.0 1 1 ctx-lh-supramarginal
-46.0 -26.0 18.0 1 1 ctx-lh-supramarginal
-52.0 -26.0 18.0 1 1 ctx-lh-supramarginal
15.0 26.0 49.0 1 1 ctx-rh-superiorfrontal
17.0 30.0 52.0 1 1 ctx-rh-superiorfrontal
26.0 15.0 -38.0 1 1 Right-Amygdala
30.0 16.0 -38.0 1 1 Right-Amygdala
9.0 -18.0 5.0 1 1 ctx-rh-isthmuscingulate
49.0 -18.0 7.0 1 1 ctx-rh-supramarginal
54.0 -18.0 7.0 1 1 ctx-rh-supramarginal
36.0 -5.0 -4.0 1 1 ctx-rh-insula
40.0 -5.0 -3.0 1 1 ctx-rh-supramarginal
43.0 -5.0 -3.0 1 1 ctx-rh-supramarginal
47.0 -6.0 -2.0 1 1 ctx-rh-supramarginal
50.0 -6.0 -2.0 1 1 ctx-rh-supramarginal
53.0 -5.0 -2.0 1 1 ctx-rh-supramarginal
57.0 -5.0 -1.0 1 1 ctx-rh-supramarginal
62.0 -5.0 -2.0 1 1 ctx-rh-supramarginal
37.0 -18.5 -9.0 1 1 ctx-rh-superiortemporal
40.0 -19.0 -9.0 1 1 ctx-rh-bankssts
43.0 -19.0 -9.0 1 1 ctx-rh-bankssts
47.0 -18.0 -9.0 1 1 ctx-rh-bankssts
50.0 -20.0 -9.5 1 1 ctx-rh-bankssts
54.0 -20.0 -7.0 1 1 ctx-rh-bankssts
58.0 -20.0 -7.0 1 1 ctx-rh-bankssts
62.0 -19.0 -7.0 1 1 ctx-rh-superiortemporal
9.0 28.0 6.0 1 1 ctx-rh-caudalanteriorcingulate
37.0 24.0 9.0 1 1 ctx-rh-caudalmiddlefrontal
40.0 24.0 9.0 1 1 ctx-rh-precentral
43.0 24.0 10.0 1 1 ctx-rh-precentral
47.0 24.0 11.0 1 1 ctx-rh-precentral
52.0 24.0 11.0 1 1 ctx-rh-precentral
7.0 -1.0 12.0 1 1 ctx-rh-posteriorcingulate
47.0 -5.0 15.0 1 1 ctx-rh-supramarginal
51.0 -5.0 15.0 1 1 ctx-rh-supramarginal
7.0 11.0 42.0 1 1 ctx-rh-paracentral
20.0 10.0 42.0 1 1 ctx-rh-precentral
26.0 10.0 42.0 1 1 ctx-rh-precentral
4.0 0.0 39.0 1 1 ctx-rh-paracentral
24.0 -1.0 39.0 1 1 ctx-rh-precentral
37.0 -2.0 40.0 1 1 ctx-rh-precentral
42.0 -1.0 40.0 1 1 ctx-rh-precentral
-32.0 31.0 -33.0 1 1 ctx-lh-insula
-33.0 32.0 -30.0 1 1 ctx-lh-insula
-32.0 33.0 -27.0 1 1 ctx-lh-insula
-31.0 35.0 -24.0 1 1 ctx-lh-insula
-30.0 36.0 -20.0 1 1 ctx-lh-insula
-30.0 38.0 -16.0 1 1 ctx-lh-insula
-33.0 22.0 -12.0 1 1 ctx-lh-insula
-48.0 21.0 -11.0 1 1 ctx-lh-precentral
-53.0 21.0 -10.0 1 1 ctx-lh-precentral
-59.0 21.0 -10.0 1 1 ctx-lh-precentral
-38.0 12.0 -1.0 1 1 ctx-lh-insula
-48.0 12.0 0.0 1 1 ctx-lh-precentral
-52.0 11.0 0.0 1 1 ctx-lh-postcentral
-57.0 11.0 0.0 1 1 ctx-lh-postcentral
-38.0 16.0 -32.0 1 1 ctx-lh-insula
-38.0 13.0 -29.0 1 1 ctx-lh-insula
-37.0 11.0 -27.0 1 1 ctx-lh-insula
-38.0 9.0 -24.0 1 1 ctx-lh-insula
-37.0 7.0 -21.0 1 1 ctx-lh-insula
-36.0 3.0 -18.0 1 1 ctx-lh-insula
-34.0 -6.0 -4.0 1 1 ctx-lh-insula
-49.0 -4.0 -15.0 1 1 ctx-lh-transversetemporal
-53.0 -4.5 -14.0 1 1 ctx-lh-superiortemporal
-58.0 -5.0 -14.0 1 1 ctx-lh-superiortemporal
7.0 -26.0 8.0 1 1 ctx-rh-isthmuscingulate
11.0 -27.0 9.0 1 1 ctx-rh-isthmuscingulate
17.0 -27.0 9.0 1 1 ctx-rh-precuneus
56.0 -25.0 7.0 1 1 ctx-rh-supramarginal
60.0 -25.0 7.0 1 1 ctx-rh-supramarginal
64.0 -25.0 7.0 1 1 ctx-rh-supramarginal
67.0 -24.0 7.0 1 1 ctx-rh-supramarginal
70.0 -24.0 6.0 1 1 ctx-rh-supramarginal
40.0 -1.0 -43.0 1 1 ctx-rh-fusiform
49.0 0.0 -45.0 1 1 ctx-rh-inferiortemporal
60.0 0.0 -45.0 1 1 ctx-rh-inferiortemporal
25.0 -30.0 -31.0 1 1 ctx-rh-fusiform
31.0 -29.0 -32.0 1 1 ctx-rh-fusiform
53.0 -27.5 -33.5 1 1 ctx-rh-inferiortemporal
56.0 -27.0 -33.0 1 1 ctx-rh-middletemporal
60.0 -27.0 -33.0 1 1 ctx-rh-inferiortemporal
64.0 -27.0 -33.0 1 1 ctx-rh-inferiortemporal
65.0 -25.0 -12.0 1 1 ctx-rh-middletemporal
69.0 -24.0 -11.0 1 1 ctx-rh-superiortemporal
57.0 12.0 -29.0 1 1 ctx-rh-superiortemporal
61.0 12.0 -28.0 1 1 ctx-rh-superiortemporal
66.0 12.0 -28.0 1 1 ctx-rh-middletemporal
63.0 -4.0 -17.0 1 1 ctx-rh-superiortemporal
66.0 -4.0 -17.0 1 1 ctx-rh-superiortemporal
70.0 -5.0 -17.0 1 1 ctx-rh-superiortemporal
40.0 4.0 -17.0 1 1 ctx-rh-insula
39.0 3.0 -13.0 1 1 ctx-rh-insula
39.0 0.0 -9.0 1 1 ctx-rh-insula
40.0 -3.0 -4.0 1 1 ctx-rh-supramarginal
33.0 32.0 -18.0 1 1 ctx-rh-insula
32.0 33.0 -14.0 1 1 ctx-rh-insula
28.0 42.0 8.0 1 1 ctx-rh-rostralmiddlefrontal
5.0 49.0 -35.5 1 1 ctx-rh-medialorbitofrontal
9.0 50.0 -36.0 1 1 ctx-rh-medialorbitofrontal
21.0 49.0 -38.0 1 1 ctx-rh-lateralorbitofrontal
39.0 48.0 -36.0 1 1 ctx-rh-lateralorbitofrontal
43.0 49.0 -36.0 1 1 ctx-rh-parsorbitalis
-8.0 -30.0 1.0 1 1 ctx-lh-isthmuscingulate
-21.0 -8.0 -27.0 1 1 Left-Hippocampus
-25.0 -8.0 -27.0 1 1 Left-Hippocampus
-28.0 -8.0 -28.0 1 1 Left-Hippocampus
-33.0 -9.0 -27.0 1 1 Left-Hippocampus
-31.0 32.5 -4.0 1 1 ctx-lh-insula
-25.0 -41.0 -16.0 1 1 ctx-lh-lingual
-39.0 -42.0 -11.0 1 1 ctx-lh-lateraloccipital
33.0 0.0 -34.0 1 1 Right-Hippocampus
35.0 23.0 -10.0 1 1 ctx-rh-insula
39.0 23.0 -9.0 1 1 ctx-rh-precentral
42.0 24.0 -8.0 1 1 ctx-rh-precentral
46.0 24.0 -8.0 1 1 ctx-rh-precentral
50.0 24.0 -6.0 1 1 ctx-rh-precentral
55.0 24.0 -7.0 1 1 ctx-rh-precentral
60.0 24.0 -7.0 1 1 ctx-rh-precentral
-33.0 28.0 -26.0 1 1 ctx-lh-insula
-31.5 28.0 -22.0 1 1 Left-Putamen
-33.0 28.0 -18.0 1 1 ctx-lh-insula
-31.0 28.0 -15.0 1 1 ctx-lh-insula
-30.0 28.0 -11.0 1 1 ctx-lh-insula
-21.0 28.0 27.0 1 1 ctx-lh-caudalmiddlefrontal
-28.0 31.0 -6.0 1 1 ctx-lh-insula
-32.0 31.0 -6.0 1 1 ctx-lh-insula
-37.0 30.0 -6.0 1 1 ctx-lh-parsopercularis
-47.0 32.0 -6.0 1 1 ctx-lh-parsopercularis
-51.0 32.0 -6.0 1 1 ctx-lh-parsopercularis
-57.0 32.0 -6.0 1 1 ctx-lh-parsopercularis
-30.0 21.0 -5.0 1 1 ctx-lh-insula
-34.0 22.0 -5.0 1 1 ctx-lh-insula
-38.0 22.0 -4.0 1 1 ctx-lh-precentral
-42.0 22.0 -4.0 1 1 ctx-lh-parsopercularis
-46.0 22.0 -4.5 1 1 ctx-lh-precentral
-49.0 22.0 -6.0 1 1 ctx-lh-precentral
-53.0 23.0 -6.0 1 1 ctx-lh-precentral
-59.0 23.0 -6.0 1 1 ctx-lh-precentral
-41.0 -13.0 -13.0 1 1 ctx-lh-transversetemporal
-45.0 -13.0 -13.0 1 1 ctx-lh-superiortemporal
-48.0 -13.0 -12.0 1 1 ctx-lh-superiortemporal
-52.0 -13.0 -12.0 1 1 ctx-lh-superiortemporal
-57.0 -13.0 -12.0 1 1 ctx-lh-superiortemporal
-61.0 -13.0 -13.0 1 1 ctx-lh-bankssts
45.0 33.0 -57.0 1 1 ctx-rh-middletemporal
-44.0 21.0 -6.0 1 1 ctx-lh-precentral
-56.0 20.0 -7.0 1 1 ctx-lh-precentral
-2.0 -57.0 -16.0 1 1 ctx-lh-lingual
-6.0 -57.0 -15.0 1 1 ctx-lh-lingual
-11.0 -57.0 -14.0 1 1 ctx-lh-pericalcarine
-40.0 -58.0 -17.0 1 1 ctx-lh-lateraloccipital
-44.0 -58.0 -17.0 1 1 ctx-lh-lateraloccipital
-48.0 -59.0 -18.0 1 1 ctx-lh-lateraloccipital
-54.0 -59.0 -19.0 1 1 ctx-lh-lateraloccipital
-38.0 -8.0 -14.0 1 1 ctx-lh-transversetemporal
-43.0 -9.0 -14.0 1 1 ctx-lh-transversetemporal
-56.0 -8.0 -14.0 1 1 ctx-lh-superiortemporal
-60.0 -10.0 -14.0 1 1 ctx-lh-superiortemporal
-63.0 -9.0 -15.0 1 1 ctx-lh-superiortemporal
-68.0 -9.0 -15.0 1 1 ctx-lh-superiortemporal
-36.0 -23.0 -3.0 1 1 ctx-lh-superiortemporal
-40.0 -22.0 -3.0 1 1 ctx-lh-superiortemporal
-58.0 -23.0 -3.0 1 1 ctx-lh-superiortemporal
-62.0 -23.0 -3.0 1 1 ctx-lh-superiortemporal
-66.0 -23.0 -2.0 1 1 ctx-lh-superiortemporal
-71.0 -24.0 -3.0 1 1 ctx-lh-superiortemporal
-4.0 -61.0 -4.0 1 1 ctx-lh-cuneus
-9.0 -61.0 -3.0 1 1 ctx-lh-pericalcarine
-47.0 -64.0 -5.0 1 1 ctx-lh-lateraloccipital
-52.0 -64.0 -5.0 1 1 ctx-lh-lateraloccipital
-2.0 -26.0 11.0 1 1 ctx-lh-isthmuscingulate
-6.0 -25.0 11.0 1 1 ctx-lh-isthmuscingulate
-48.0 -25.0 8.0 1 1 ctx-lh-supramarginal
-62.0 -26.0 9.0 1 1 ctx-lh-supramarginal
-71.0 -27.0 6.0 1 1 ctx-lh-supramarginal
-48.5 6.0 -5.0 1 1 ctx-lh-postcentral
-58.0 7.0 -4.0 1 1 ctx-lh-postcentral
-61.0 6.0 -7.0 1 1 ctx-lh-postcentral
-67.0 6.0 -8.0 1 1 ctx-lh-postcentral
-53.0 -15.0 -7.0 1 1 ctx-lh-superiortemporal
-58.0 -16.0 -7.0 1 1 ctx-lh-superiortemporal
-63.0 -16.0 -7.0 1 1 ctx-lh-superiortemporal
-62.0 -25.0 6.0 1 1 ctx-lh-supramarginal
-36.0 21.0 -6.0 1 1 ctx-lh-precentral
-40.0 21.0 -6.0 1 1 ctx-lh-precentral
-43.0 20.0 -6.0 1 1 ctx-lh-precentral
-46.5 20.0 -7.0 1 1 ctx-lh-precentral
-51.0 20.0 -6.0 1 1 ctx-lh-precentral
-21.0 -41.0 -29.0 1 1 ctx-lh-lingual
-25.0 -41.0 -29.0 1 1 ctx-lh-lingual
62.0 6.0 -17.0 1 1 ctx-rh-superiortemporal
66.0 6.0 -18.0 1 1 ctx-rh-superiortemporal
61.0 -10.0 -32.0 1 1 ctx-rh-middletemporal
65.0 -11.0 -33.0 1 1 ctx-rh-middletemporal
69.0 -11.0 -33.0 1 1 ctx-rh-middletemporal
40.0 -6.0 -44.0 1 1 ctx-rh-fusiform
44.0 -6.0 -44.0 1 1 ctx-rh-inferiortemporal
48.0 -5.0 -44.0 1 1 ctx-rh-inferiortemporal
-44.0 23.0 -26.0 1 1 ctx-lh-insula
-56.0 21.0 -26.0 1 1 ctx-lh-superiortemporal
-60.0 18.0 -26.0 1 1 ctx-lh-superiortemporal
-49.0 5.0 -16.0 1 1 ctx-lh-transversetemporal
-52.0 3.0 -17.0 1 1 ctx-lh-superiortemporal
-57.0 3.0 -17.0 1 1 ctx-lh-superiortemporal
-63.0 2.0 -17.0 1 1 ctx-lh-superiortemporal
39.0 24.0 -30.0 1 1 ctx-rh-insula
37.5 24.0 -26.0 1 1 ctx-rh-insula
38.0 25.0 -22.0 1 1 ctx-rh-insula
37.0 25.0 -18.5 1 1 ctx-rh-insula
36.0 26.0 -14.0 1 1 ctx-rh-insula
38.0 8.0 -30.0 1 1 ctx-rh-insula
36.0 8.0 -25.0 1 1 ctx-rh-insula
35.0 2.0 -12.0 1 1 ctx-rh-insula
35.0 -1.0 -6.0 1 1 ctx-rh-insula
-34.0 36.0 -10.0 1 1 ctx-lh-parsopercularis
-38.0 36.0 -10.0 1 1 ctx-lh-parsopercularis
-51.0 36.0 -9.0 1 1 ctx-lh-parsopercularis
-56.0 35.0 -10.0 1 1 ctx-lh-parsopercularis
-31.0 16.0 -10.0 1 1 Left-Putamen
-35.0 16.0 -9.0 1 1 ctx-lh-insula
-40.0 15.0 -8.0 1 1 ctx-lh-insula
-55.0 14.0 -8.0 1 1 ctx-lh-precentral
-34.0 1.0 -3.0 1 1 ctx-lh-insula
-38.0 1.0 -2.0 1 1 ctx-lh-postcentral
-42.0 0.0 -1.0 1 1 ctx-lh-postcentral
-47.0 0.0 -1.0 1 1 ctx-lh-postcentral
-51.0 0.0 -1.0 1 1 ctx-lh-supramarginal
-55.0 0.0 -2.0 1 1 ctx-lh-supramarginal
-59.0 -1.0 -2.0 1 1 ctx-lh-supramarginal
-64.0 -2.0 -2.0 1 1 ctx-lh-postcentral
-36.0 -11.0 -3.0 1 1 ctx-lh-transversetemporal
-40.0 -10.0 -1.0 1 1 ctx-lh-supramarginal
-45.0 -11.0 0.0 1 1 ctx-lh-supramarginal
-56.0 -11.0 -1.0 1 1 ctx-lh-supramarginal
-61.0 -11.0 -1.0 1 1 ctx-lh-supramarginal
-52.0 -3.0 -27.0 1 1 ctx-lh-superiortemporal
-56.0 -3.0 -26.0 1 1 ctx-lh-middletemporal
-61.0 -3.5 -26.0 1 1 ctx-lh-middletemporal
-46.0 -13.0 -14.0 1 1 ctx-lh-superiortemporal
-49.0 -13.0 -12.0 1 1 ctx-lh-superiortemporal
-53.0 -13.0 -12.0 1 1 ctx-lh-superiortemporal
-57.0 -14.0 -12.0 1 1 ctx-lh-superiortemporal
-61.0 -13.0 -13.0 1 1 ctx-lh-bankssts
-24.0 -41.0 -35.0 1 1 ctx-lh-fusiform
-29.0 -40.0 -35.0 1 1 ctx-lh-fusiform
-40.0 -41.0 -35.0 1 1 ctx-lh-fusiform
-44.0 -40.0 -37.0 1 1 ctx-lh-fusiform
-48.0 -40.0 -36.0 1 1 ctx-lh-fusiform
-52.0 -41.0 -37.0 1 1 ctx-lh-inferiortemporal
15.0 -55.0 -19.0 1 1 ctx-rh-lingual
44.0 -51.0 -19.0 1 1 ctx-rh-lateraloccipital
13.0 -52.0 -4.0 1 1 ctx-rh-pericalcarine
65.0 -15.0 11.0 1 1 ctx-rh-supramarginal
51.0 -33.0 1.0 1 1 ctx-rh-inferiorparietal
56.0 -31.0 1.0 1 1 ctx-rh-inferiorparietal
8.0 -38.0 23.0 1 1 ctx-rh-precuneus
13.0 -38.0 23.0 1 1 ctx-rh-precuneus
17.0 -38.0 23.0 1 1 ctx-rh-precuneus
37.0 -37.0 24.0 1 1 ctx-rh-inferiorparietal
41.0 -38.0 24.0 1 1 ctx-rh-inferiorparietal
45.0 -37.0 24.0 1 1 ctx-rh-inferiorparietal
48.0 -37.0 23.0 1 1 ctx-rh-inferiorparietal
53.0 -36.0 23.0 1 1 ctx-rh-inferiorparietal
-44.0 30.0 10.0 1 1 ctx-lh-caudalmiddlefrontal
-48.0 29.0 11.0 1 1 ctx-lh-precentral
-54.0 28.0 13.0 1 1 ctx-lh-precentral
-37.0 0.0 16.0 1 1 ctx-lh-precentral
-41.0 -1.0 17.0 1 1 ctx-lh-precentral
-46.0 -2.0 19.0 1 1 ctx-lh-postcentral
-22.0 -50.0 -5.0 1 1 ctx-lh-precuneus
-26.0 -51.0 -4.0 1 1 ctx-lh-precuneus
-30.0 -52.0 -4.0 1 1 ctx-lh-inferiorparietal
-49.0 14.0 -4.0 1 1 ctx-lh-precentral
-54.0 13.0 -3.0 1 1 ctx-lh-precentral
-40.0 5.0 -5.0 1 1 ctx-lh-postcentral
-44.0 4.0 -3.0 1 1 ctx-lh-postcentral
-51.0 -13.0 -3.0 1 1 ctx-lh-supramarginal
-57.0 -13.0 -1.5 1 1 ctx-lh-supramarginal
-44.0 -29.0 -6.0 1 1 ctx-lh-bankssts
-47.0 -28.0 -4.0 1 1 ctx-lh-bankssts
-53.0 -28.0 -3.0 1 1 ctx-lh-bankssts
-46.0 6.0 -26.0 1 1 ctx-lh-superiortemporal
-44.0 -14.0 -22.0 1 1 ctx-lh-bankssts
-59.0 -14.0 -16.0 1 1 ctx-lh-bankssts
34.5 -1.0 25.0 1 1 ctx-rh-precentral
38.0 -1.0 26.0 1 1 ctx-rh-postcentral
42.0 -1.0 26.0 1 1 ctx-rh-postcentral
46.0 -1.0 25.5 1 1 ctx-rh-postcentral
51.0 -1.0 25.0 1 1 ctx-rh-postcentral
30.0 -36.0 -19.0 1 1 ctx-rh-lingual
49.0 -35.0 -23.0 1 1 ctx-rh-inferiortemporal
52.0 -35.0 -24.0 1 1 ctx-rh-inferiortemporal
55.0 -34.0 -23.5 1 1 ctx-rh-inferiortemporal
60.0 -33.0 -23.0 1 1 ctx-rh-middletemporal
-42.0 -15.0 -22.0 1 1 ctx-lh-bankssts
-45.0 -15.0 -20.0 1 1 ctx-lh-bankssts
-49.0 -15.0 -16.5 1 1 ctx-lh-bankssts
-28.0 -30.0 -34.0 1 1 ctx-lh-fusiform
-32.0 -30.0 -34.0 1 1 ctx-lh-fusiform
-36.0 -30.0 -33.0 1 1 ctx-lh-fusiform
-8.0 1.0 41.0 1 1 ctx-lh-paracentral
-33.0 2.0 41.0 1 1 ctx-lh-precentral
-37.0 3.0 41.0 1 1 ctx-lh-precentral
-41.0 3.0 41.0 1 1 ctx-lh-precentral
-45.0 3.0 40.5 1 1 ctx-lh-postcentral
-5.0 26.0 13.0 1 1 ctx-lh-caudalanteriorcingulate
-9.0 25.0 13.0 1 1 ctx-lh-caudalanteriorcingulate
-38.0 25.0 12.0 1 1 ctx-lh-caudalmiddlefrontal
-48.0 25.5 12.0 1 1 ctx-lh-precentral
-52.0 26.0 13.0 1 1 ctx-lh-precentral
-50.5 5.0 12.0 1 1 ctx-lh-postcentral
-55.0 6.0 11.0 1 1 ctx-lh-postcentral
-59.0 6.0 11.0 1 1 ctx-lh-postcentral
-5.0 -15.0 31.0 1 1 ctx-lh-paracentral
-9.0 -14.0 31.0 1 1 ctx-lh-paracentral
-38.0 -15.0 30.0 1 1 ctx-lh-superiorparietal
-41.0 -14.0 29.0 1 1 ctx-lh-postcentral
-45.0 -13.0 29.0 1 1 ctx-lh-postcentral
-49.0 -13.0 28.0 1 1 ctx-lh-postcentral
-54.0 -13.0 30.0 1 1 ctx-lh-postcentral
-23.5 -42.0 26.0 1 1 ctx-lh-superiorparietal
-23.0 -46.0 28.0 1 1 ctx-lh-inferiorparietal
-22.0 -49.0 29.0 1 1 ctx-lh-inferiorparietal
-22.0 -52.0 30.0 1 1 ctx-lh-superiorparietal
-22.0 -57.0 33.0 1 1 ctx-lh-superiorparietal
-4.5 -39.0 19.5 1 1 ctx-lh-precuneus
-8.0 -39.0 19.0 1 1 ctx-lh-precuneus
-33.0 -39.0 19.0 1 1 ctx-lh-superiorparietal
-36.0 -39.0 19.0 1 1 ctx-lh-inferiorparietal
-40.0 -39.0 18.0 1 1 ctx-lh-inferiorparietal
-45.0 -39.0 19.0 1 1 ctx-lh-inferiorparietal
-49.0 -38.0 18.0 1 1 ctx-lh-inferiorparietal
-1.0 -20.0 9.0 1 1 ctx-lh-isthmuscingulate
-5.0 -20.0 10.0 1 1 ctx-lh-isthmuscingulate
-44.0 -33.0 3.5 1 1 ctx-lh-inferiorparietal
-48.0 -32.0 4.0 1 1 ctx-lh-inferiorparietal
-53.0 -31.0 3.0 1 1 ctx-lh-supramarginal
-48.0 -47.5 -14.0 1 1 ctx-lh-inferiortemporal
-51.0 -47.0 -15.0 1 1 ctx-lh-inferiortemporal
1.0 -64.0 -16.0 1 1 ctx-lh-lingual
-3.5 -64.0 -16.0 1 1 ctx-lh-lingual
-7.0 -64.5 -17.0 1 1 ctx-lh-pericalcarine
-35.0 -65.0 -16.0 1 1 ctx-lh-lateraloccipital
-19.0 -39.0 -29.0 1 1 ctx-lh-lingual
-23.5 -39.0 -28.5 1 1 ctx-lh-lingual
-4.0 -22.0 8.0 1 1 ctx-lh-isthmuscingulate
-7.0 -22.0 9.0 1 1 ctx-lh-isthmuscingulate
-11.0 -20.0 8.0 1 1 ctx-lh-isthmuscingulate
-47.0 -20.0 9.0 1 1 ctx-lh-supramarginal
-51.0 -20.0 9.0 1 1 ctx-lh-supramarginal
-57.0 -21.0 9.0 1 1 ctx-lh-supramarginal
-31.0 -20.0 27.0 1 1 ctx-lh-superiorparietal
-37.0 -4.0 -15.0 1 1 ctx-lh-transversetemporal
-42.0 -5.0 -15.0 1 1 ctx-lh-transversetemporal
-52.0 -6.0 -13.0 1 1 ctx-lh-superiortemporal
-57.0 -7.0 -13.0 1 1 ctx-lh-superiortemporal
-62.0 -7.0 -13.0 1 1 ctx-lh-superiortemporal
-1.0 -45.0 15.0 1 1 ctx-lh-precuneus
-5.0 -44.0 15.0 1 1 ctx-lh-precuneus
-22.0 -45.0 16.0 1 1 ctx-lh-superiorparietal
-26.0 -46.0 16.0 1 1 ctx-lh-inferiorparietal
-30.0 -45.5 15.5 1 1 ctx-lh-inferiorparietal
-45.0 -47.0 16.0 1 1 ctx-lh-inferiorparietal
-50.0 -47.0 16.0 1 1 ctx-lh-inferiorparietal
-3.0 -59.0 -12.0 1 1 ctx-lh-lingual
-5.0 -50.0 -5.0 1 1 ctx-lh-cuneus
-9.0 -50.0 -3.0 1 1 ctx-lh-cuneus
59.0 -29.0 -19.0 1 1 ctx-rh-middletemporal
64.0 -29.0 -19.0 1 1 ctx-rh-middletemporal
34.0 36.0 -14.0 1 1 ctx-rh-insula
34.0 39.0 -9.0 1 1 ctx-rh-parsopercularis
32.0 46.0 12.0 1 1 ctx-rh-rostralmiddlefrontal
32.0 48.0 17.0 1 1 ctx-rh-rostralmiddlefrontal
49.0 -18.0 -9.0 1 1 ctx-rh-bankssts
53.0 -18.0 -9.0 1 1 ctx-rh-bankssts
57.0 -18.0 -9.0 1 1 ctx-rh-bankssts
62.0 -18.0 -9.0 1 1 ctx-rh-bankssts
61.0 -4.0 3.0 1 1 ctx-rh-supramarginal
63.0 -4.0 2.0 1 1 ctx-rh-supramarginal
67.0 -4.0 2.0 1 1 ctx-rh-supramarginal
6.0 -47.0 -5.0 1 1 ctx-rh-cuneus
10.0 -47.0 -5.0 1 1 ctx-rh-cuneus
13.0 -45.0 -5.0 1 1 ctx-rh-cuneus
18.0 -46.0 -5.0 1 1 ctx-rh-cuneus
35.0 -45.0 -6.0 1 1 ctx-rh-inferiorparietal
41.0 -45.0 -7.0 1 1 ctx-rh-lateraloccipital
-9.0 55.0 1.0 1 1 ctx-lh-superiorfrontal
-25.0 54.0 11.0 1 1 ctx-lh-rostralmiddlefrontal
-28.0 54.0 13.0 1 1 ctx-lh-rostralmiddlefrontal
-32.0 54.0 16.0 1 1 ctx-lh-rostralmiddlefrontal
-35.0 54.0 19.0 1 1 ctx-lh-rostralmiddlefrontal
-40.0 53.0 19.0 1 1 ctx-lh-rostralmiddlefrontal
-42.0 53.0 22.5 1 1 ctx-lh-rostralmiddlefrontal
-10.0 23.0 20.0 1 1 ctx-lh-caudalanteriorcingulate
-25.0 23.0 26.0 1 1 ctx-lh-caudalmiddlefrontal
-29.0 24.0 29.0 1 1 ctx-lh-caudalmiddlefrontal
-32.0 24.0 31.0 1 1 ctx-lh-caudalmiddlefrontal
-40.0 26.0 36.0 1 1 ctx-lh-caudalmiddlefrontal
-44.0 27.0 39.0 1 1 ctx-lh-caudalmiddlefrontal
12.0 38.0 -38.0 1 1 ctx-rh-lateralorbitofrontal
31.0 41.0 -29.0 1 1 ctx-rh-lateralorbitofrontal
34.0 41.0 -26.0 1 1 ctx-rh-lateralorbitofrontal
37.0 42.0 -24.0 1 1 ctx-rh-insula
42.0 43.0 -23.0 1 1 ctx-rh-parsorbitalis
25.0 58.0 10.0 1 1 ctx-rh-rostralmiddlefrontal
28.0 59.0 13.0 1 1 ctx-rh-rostralmiddlefrontal
31.0 61.0 16.0 1 1 ctx-rh-rostralmiddlefrontal
35.0 62.0 20.0 1 1 ctx-rh-rostralmiddlefrontal
9.0 25.0 16.0 1 1 ctx-rh-caudalanteriorcingulate
12.0 26.0 18.0 1 1 ctx-rh-superiorfrontal
27.0 27.0 25.0 1 1 ctx-rh-caudalmiddlefrontal
30.0 28.0 26.0 1 1 ctx-rh-caudalmiddlefrontal
41.0 31.0 33.0 1 1 ctx-rh-caudalmiddlefrontal
45.0 33.0 36.0 1 1 ctx-rh-caudalmiddlefrontal
46.0 25.0 -52.0 1 1 ctx-rh-middletemporal
49.0 26.0 -53.0 1 1 ctx-rh-middletemporal
53.0 27.0 -53.0 1 1 ctx-rh-middletemporal
58.0 27.0 -53.0 1 1 ctx-rh-middletemporal
58.0 5.0 -44.0 1 1 ctx-rh-inferiortemporal
62.0 5.0 -44.0 1 1 ctx-rh-middletemporal
-36.0 27.0 -25.0 1 1 ctx-lh-insula
-35.0 25.0 -22.0 1 1 ctx-lh-insula
-35.0 24.0 -18.0 1 1 ctx-lh-insula
-35.0 22.0 -15.0 1 1 ctx-lh-insula
-34.0 21.0 -12.0 1 1 ctx-lh-insula
-34.0 19.0 -8.0 1 1 ctx-lh-insula
-33.0 17.0 -4.0 1 1 ctx-lh-insula
-10.0 24.0 27.0 1 1 ctx-lh-superiorfrontal
-10.0 23.0 31.0 1 1 ctx-lh-superiorfrontal
-10.0 22.0 36.0 1 1 ctx-lh-superiorfrontal
-11.0 17.0 43.0 1 1 ctx-lh-superiorfrontal
-11.0 15.0 46.0 1 1 ctx-lh-superiorfrontal
-10.0 13.0 51.0 1 1 ctx-lh-superiorfrontal
-11.0 11.0 56.0 1 1 ctx-lh-superiorfrontal
-8.0 10.0 16.5 1 1 ctx-lh-posteriorcingulate
-8.0 9.0 19.0 1 1 ctx-lh-posteriorcingulate
-9.0 8.0 23.0 1 1 ctx-lh-superiorfrontal
-10.0 6.0 25.5 1 1 ctx-lh-superiorfrontal
-10.0 4.5 30.0 1 1 ctx-lh-superiorfrontal
-11.0 0.0 41.0 1 1 ctx-lh-paracentral
-12.0 -1.0 46.0 1 1 ctx-lh-paracentral
-12.0 -2.0 50.0 1 1 ctx-lh-precentral
-13.0 -3.0 54.0 1 1 ctx-lh-precentral
-13.0 -4.0 58.0 1 1 ctx-lh-precentral
-14.0 -5.0 63.0 1 1 ctx-lh-precentral
10.0 52.0 -1.0 1 1 ctx-rh-caudalanteriorcingulate
14.0 52.0 0.0 1 1 ctx-rh-superiorfrontal
36.0 59.0 12.0 1 1 ctx-rh-rostralmiddlefrontal
41.0 60.0 14.0 1 1 ctx-rh-rostralmiddlefrontal
11.0 37.0 11.5 1 1 ctx-rh-caudalanteriorcingulate
38.0 42.0 26.0 1 1 ctx-rh-rostralmiddlefrontal
42.0 43.0 28.0 1 1 ctx-rh-caudalmiddlefrontal
45.0 45.0 30.0 1 1 ctx-rh-caudalmiddlefrontal
9.0 52.0 12.0 1 1 ctx-rh-superiorfrontal
10.0 52.0 16.0 1 1 ctx-rh-superiorfrontal
14.0 56.0 29.0 1 1 ctx-rh-superiorfrontal
16.0 58.0 35.0 1 1 ctx-rh-superiorfrontal
20.0 13.0 -44.0 1 1 Right-Amygdala
24.0 14.0 -45.0 1 1 Right-Amygdala
27.0 15.0 -45.0 1 1 Right-Amygdala
31.0 15.0 -46.0 1 1 Right-Amygdala
28.0 3.0 -41.0 1 1 Right-Hippocampus
32.0 3.0 -41.0 1 1 Right-Hippocampus
35.0 4.0 -41.0 1 1 Right-Hippocampus
-11.0 45.0 -31.0 1 1 ctx-lh-medialorbitofrontal
-33.0 50.0 -23.0 1 1 ctx-lh-lateralorbitofrontal
-38.0 53.0 -21.0 1 1 ctx-lh-parstriangularis
-43.0 54.0 -20.0 1 1 ctx-lh-parstriangularis
-46.5 56.0 -17.0 1 1 ctx-lh-parstriangularis
-8.0 53.0 -10.0 1 1 ctx-lh-rostralanteriorcingulate
-35.5 52.0 -2.0 1 1 ctx-lh-rostralmiddlefrontal
-41.0 52.0 -2.0 1 1 ctx-lh-rostralmiddlefrontal
-45.0 51.0 1.0 1 1 ctx-lh-rostralmiddlefrontal
-4.5 -33.0 -2.0 1 1 ctx-lh-isthmuscingulate
-8.5 -35.0 -0.5 1 1 ctx-lh-precuneus
-12.0 -36.5 1.0 1 1 ctx-lh-precuneus
-17.0 -38.0 4.0 1 1 ctx-lh-precuneus
-58.0 -31.0 -27.0 1 1 ctx-lh-inferiortemporal
-63.0 -33.0 -26.0 1 1 ctx-lh-inferiortemporal
27.0 -33.0 41.0 1 1 ctx-rh-superiorparietal
35.0 -66.0 -18.0 1 1 ctx-rh-lateraloccipital
38.0 -65.0 -18.0 1 1 ctx-rh-lateraloccipital
42.0 -65.0 -17.0 1 1 ctx-rh-lateraloccipital
-3.0 53.0 -28.0 1 1 ctx-lh-rostralanteriorcingulate
-8.0 54.0 -30.0 1 1 ctx-lh-medialorbitofrontal
-6.0 52.0 0.0 1 1 ctx-lh-rostralanteriorcingulate
-5.0 25.0 8.0 1 1 ctx-lh-caudalanteriorcingulate
-10.0 26.0 11.0 1 1 ctx-lh-caudalanteriorcingulate
-37.0 32.0 15.0 1 1 ctx-lh-caudalmiddlefrontal
-19.0 31.0 37.0 1 1 ctx-lh-superiorfrontal
-23.0 32.0 40.0 1 1 ctx-lh-superiorfrontal
-27.5 34.0 43.5 1 1 ctx-lh-caudalmiddlefrontal
-24.0 -7.0 -31.0 1 1 Left-Hippocampus
8.0 49.0 -36.0 1 1 ctx-rh-medialorbitofrontal
12.0 48.0 -35.0 1 1 ctx-rh-lateralorbitofrontal
19.0 47.0 -32.0 1 1 ctx-rh-lateralorbitofrontal
24.0 47.0 -32.0 1 1 ctx-rh-lateralorbitofrontal
31.0 47.0 -31.0 1 1 ctx-rh-lateralorbitofrontal
35.5 47.0 -28.0 1 1 ctx-rh-lateralorbitofrontal
40.0 48.0 -26.0 1 1 ctx-rh-lateralorbitofrontal
8.0 51.0 -1.0 1 1 ctx-rh-caudalanteriorcingulate
13.0 50.0 0.0 1 1 ctx-rh-caudalanteriorcingulate
34.5 50.0 2.0 1 1 ctx-rh-rostralmiddlefrontal
40.0 50.0 2.0 1 1 ctx-rh-rostralmiddlefrontal
41.0 11.0 -26.0 1 1 ctx-rh-insula
41.0 -10.0 -36.0 1 1 ctx-rh-fusiform
7.0 11.0 31.0 1 1 ctx-rh-paracentral
9.0 14.0 36.0 1 1 ctx-rh-superiorfrontal
14.0 19.0 43.0 1 1 ctx-rh-superiorfrontal
16.0 23.0 48.0 1 1 ctx-rh-superiorfrontal
34.0 10.0 21.0 1 1 ctx-rh-precentral
39.0 10.0 23.0 1 1 ctx-rh-precentral
44.0 11.0 25.0 1 1 ctx-rh-precentral
49.5 11.0 26.0 1 1 ctx-rh-precentral
12.0 -43.0 -20.0 1 1 ctx-rh-lingual
16.0 -43.0 -19.0 1 1 ctx-rh-lingual
-10.0 52.0 -15.0 1 1 ctx-lh-rostralanteriorcingulate
-34.0 54.0 -2.0 1 1 ctx-lh-rostralmiddlefrontal
-38.0 54.0 1.0 1 1 ctx-lh-rostralmiddlefrontal
-6.0 25.0 14.0 1 1 ctx-lh-caudalanteriorcingulate
-11.0 26.0 15.0 1 1 ctx-lh-caudalanteriorcingulate
-15.0 28.0 16.0 1 1 ctx-lh-caudalanteriorcingulate
-35.0 32.0 18.0 1 1 ctx-lh-caudalmiddlefrontal
11.0 54.0 -17.5 1 1 ctx-rh-rostralanteriorcingulate
14.0 56.0 -15.5 1 1 ctx-rh-rostralanteriorcingulate
28.0 59.0 -9.0 1 1 ctx-rh-rostralmiddlefrontal
32.0 60.0 -5.0 1 1 ctx-rh-rostralmiddlefrontal
10.0 28.0 14.0 1 1 ctx-rh-caudalanteriorcingulate
14.0 29.0 14.0 1 1 ctx-rh-caudalanteriorcingulate
-30.0 -18.0 -21.0 1 1 Left-Hippocampus
-41.0 -18.0 -22.0 1 1 ctx-lh-bankssts
-46.0 -18.0 -23.0 1 1 ctx-lh-bankssts
-51.0 -18.0 -21.0 1 1 ctx-lh-middletemporal
-57.0 -18.0 -22.5 1 1 ctx-lh-middletemporal
-62.0 -18.0 -23.0 1 1 ctx-lh-middletemporal
-68.0 -18.0 -25.0 1 1 ctx-lh-middletemporal
-9.0 -31.0 6.0 1 1 ctx-lh-isthmuscingulate
-42.0 -31.0 4.0 1 1 ctx-lh-inferiorparietal
-48.0 -29.0 3.0 1 1 ctx-lh-supramarginal
-7.0 -33.5 26.0 1 1 ctx-lh-precuneus
-12.0 -33.0 26.0 1 1 ctx-lh-precuneus
-23.0 -34.0 28.0 1 1 ctx-lh-superiorparietal
-27.0 -35.0 30.0 1 1 ctx-lh-superiorparietal
-32.0 -35.0 29.0 1 1 ctx-lh-superiorparietal
-38.0 -35.0 30.0 1 1 ctx-lh-inferiorparietal
-43.0 -35.0 31.0 1 1 ctx-lh-inferiorparietal
-22.0 -52.0 11.0 1 1 ctx-lh-superiorparietal
-26.0 -53.0 12.0 1 1 ctx-lh-superiorparietal
-32.0 -52.0 13.0 1 1 ctx-lh-inferiorparietal
-36.0 -52.0 14.0 1 1 ctx-lh-inferiorparietal
-41.0 -51.0 14.0 1 1 ctx-lh-inferiorparietal
-4.0 46.0 6.0 1 1 ctx-lh-caudalanteriorcingulate
-5.0 45.0 10.0 1 1 ctx-lh-superiorfrontal
-5.0 46.0 14.0 1 1 ctx-lh-superiorfrontal
-5.0 46.0 18.0 1 1 ctx-lh-superiorfrontal
-6.0 46.0 21.5 1 1 ctx-lh-superiorfrontal
-6.0 46.0 26.0 1 1 ctx-lh-superiorfrontal
-8.0 49.0 39.0 1 1 ctx-lh-superiorfrontal
-5.0 27.5 18.0 1 1 ctx-lh-caudalanteriorcingulate
-6.0 29.0 20.0 1 1 ctx-lh-superiorfrontal
-7.0 29.0 23.5 1 1 ctx-lh-superiorfrontal
-12.0 33.0 42.0 1 1 ctx-lh-superiorfrontal
-14.0 35.0 45.0 1 1 ctx-lh-superiorfrontal
10.0 39.0 -38.0 1 1 ctx-rh-medialorbitofrontal
13.0 39.0 -36.0 1 1 ctx-rh-lateralorbitofrontal
29.0 41.0 -27.0 1 1 ctx-rh-lateralorbitofrontal
32.0 42.0 -26.0 1 1 ctx-rh-lateralorbitofrontal
35.0 42.0 -23.5 1 1 ctx-rh-insula
12.0 48.0 3.0 1 1 ctx-rh-caudalanteriorcingulate
12.0 48.0 8.0 1 1 ctx-rh-superiorfrontal
14.0 46.0 32.0 1 1 ctx-rh-superiorfrontal
13.5 48.0 36.0 1 1 ctx-rh-superiorfrontal
14.0 49.0 41.0 1 1 ctx-rh-superiorfrontal
14.0 50.0 47.0 1 1 ctx-rh-superiorfrontal
37.0 36.0 6.0 1 1 ctx-rh-parsopercularis
36.0 38.0 15.0 1 1 ctx-rh-rostralmiddlefrontal
35.0 38.0 19.0 1 1 ctx-rh-rostralmiddlefrontal
33.0 40.0 28.0 1 1 ctx-rh-caudalmiddlefrontal
29.0 7.0 -43.0 1 1 Right-Hippocampus
33.0 8.0 -43.0 1 1 Right-Hippocampus
36.0 8.0 -43.0 1 1 Right-Hippocampus
38.0 8.0 -44.0 1 1 Right-Hippocampus
14.0 -37.0 -3.0 1 1 ctx-rh-precuneus
13.5 -40.0 -1.0 1 1 ctx-rh-precuneus
40.0 -31.0 21.0 1 1 ctx-rh-inferiorparietal
43.0 -32.0 22.0 1 1 ctx-rh-inferiorparietal
46.0 -33.5 23.0 1 1 ctx-rh-inferiorparietal
51.0 -36.0 25.0 1 1 ctx-rh-inferiorparietal
27.0 -45.0 27.0 1 1 ctx-rh-superiorparietal
30.0 -45.0 28.0 1 1 ctx-rh-superiorparietal
34.0 -45.0 30.0 1 1 ctx-rh-inferiorparietal
38.0 -47.0 34.0 1 1 ctx-rh-inferiorparietal
43.0 -47.0 36.0 1 1 ctx-rh-inferiorparietal
-29.5 -13.0 -26.0 1 1 Left-Hippocampus
-35.0 -15.0 -25.0 1 1 Left-Hippocampus
8.0 48.0 -26.5 1 1 ctx-rh-rostralanteriorcingulate
36.0 54.0 -24.0 1 1 ctx-rh-lateralorbitofrontal
41.0 56.0 -23.0 1 1 ctx-rh-parstriangularis
47.0 57.0 -22.0 1 1 ctx-rh-parstriangularis
1.0 38.0 9.0 1 1 ctx-rh-caudalanteriorcingulate
6.0 39.0 8.0 1 1 ctx-rh-caudalanteriorcingulate
11.0 40.0 8.0 1 1 ctx-rh-caudalanteriorcingulate
16.0 41.0 7.0 1 1 ctx-rh-superiorfrontal
12.0 -25.0 13.0 1 1 ctx-rh-isthmuscingulate
18.0 -27.0 13.0 1 1 ctx-rh-precuneus
49.0 -33.0 13.5 1 1 ctx-rh-inferiorparietal
44.0 7.0 -6.0 1 1 ctx-rh-postcentral
43.0 3.0 -1.0 1 1 ctx-rh-postcentral
-5.0 51.0 -41.0 1 1 ctx-lh-medialorbitofrontal
-9.0 51.0 -40.0 1 1 ctx-lh-medialorbitofrontal
-25.0 50.0 -34.0 1 1 ctx-lh-lateralorbitofrontal
9.0 -25.0 17.0 1 1 ctx-rh-precuneus
33.0 -24.0 22.0 1 1 ctx-rh-superiorparietal
36.0 -23.0 23.0 1 1 ctx-rh-superiorparietal
40.0 -23.0 24.0 1 1 ctx-rh-inferiorparietal
44.0 -22.0 24.5 1 1 ctx-rh-inferiorparietal
-47.0 -20.0 -14.0 1 1 ctx-lh-bankssts
-50.0 -20.0 -13.0 1 1 ctx-lh-bankssts
-36.0 -39.0 8.0 1 1 ctx-lh-inferiorparietal
-53.0 -16.0 -35.0 1 1 ctx-lh-inferiortemporal
-57.0 -16.0 -35.0 1 1 ctx-lh-inferiortemporal
-61.0 -17.0 -35.0 1 1 ctx-lh-middletemporal
-6.0 -67.0 -18.0 1 1 ctx-lh-pericalcarine
-10.0 -66.0 -18.0 1 1 ctx-lh-pericalcarine
-13.0 -67.0 -16.0 1 1 ctx-lh-pericalcarine
-17.0 -66.0 -16.0 1 1 ctx-lh-pericalcarine
-32.0 -65.0 -15.0 1 1 ctx-lh-lateraloccipital
-36.0 -65.0 -15.0 1 1 ctx-lh-lateraloccipital
-39.0 -65.0 -15.0 1 1 ctx-lh-lateraloccipital
-42.0 -65.0 -15.0 1 1 ctx-lh-lateraloccipital
-10.5 46.0 -3.0 1 1 ctx-lh-rostralanteriorcingulate
-35.0 44.0 0.0 1 1 ctx-lh-rostralmiddlefrontal
-40.0 44.0 -2.0 1 1 ctx-lh-parsopercularis
-46.0 44.0 -1.0 1 1 ctx-lh-parsopercularis
-8.0 25.0 21.0 1 1 ctx-lh-superiorfrontal
-12.0 27.0 24.0 1 1 ctx-lh-superiorfrontal
-16.0 29.0 28.0 1 1 ctx-lh-superiorfrontal
-21.0 30.0 31.0 1 1 ctx-lh-superiorfrontal
-26.0 32.0 34.0 1 1 ctx-lh-caudalmiddlefrontal
-31.0 34.0 39.0 1 1 ctx-lh-caudalmiddlefrontal
-36.0 36.0 41.0 1 1 ctx-lh-caudalmiddlefrontal
-39.0 56.0 -16.0 1 1 ctx-lh-parstriangularis
-41.0 57.0 -12.0 1 1 ctx-lh-parstriangularis
-44.0 57.0 -11.0 1 1 ctx-lh-parstriangularis
-30.0 62.0 6.0 1 1 ctx-lh-rostralmiddlefrontal
-34.0 61.0 9.0 1 1 ctx-lh-rostralmiddlefrontal
-37.0 63.0 12.0 1 1 ctx-lh-rostralmiddlefrontal
-41.0 62.0 14.0 1 1 ctx-lh-rostralmiddlefrontal
38.0 28.0 19.0 1 1 ctx-rh-caudalmiddlefrontal
41.0 28.0 19.0 1 1 ctx-rh-caudalmiddlefrontal
46.0 27.0 18.0 1 1 ctx-rh-caudalmiddlefrontal
49.0 27.0 17.0 1 1 ctx-rh-caudalmiddlefrontal
53.0 27.0 18.0 1 1 ctx-rh-precentral
58.0 26.5 18.0 1 1 ctx-rh-precentral
64.0 27.0 18.0 1 1 ctx-rh-precentral
-27.0 46.0 -24.5 1 1 ctx-lh-lateralorbitofrontal
-30.0 47.0 -22.0 1 1 ctx-lh-lateralorbitofrontal
-34.0 48.0 -20.0 1 1 ctx-lh-parstriangularis
-29.0 52.0 5.0 1 1 ctx-lh-rostralmiddlefrontal
-8.0 39.0 6.0 1 1 ctx-lh-caudalanteriorcingulate
-11.0 37.0 9.0 1 1 ctx-lh-caudalanteriorcingulate
-15.0 38.0 11.0 1 1 ctx-lh-superiorfrontal
-50.0 -4.0 -36.0 1 1 ctx-lh-inferiortemporal
40.0 1.0 -44.0 1 1 ctx-rh-fusiform
46.0 2.0 -44.0 1 1 ctx-rh-inferiortemporal
51.0 2.0 -44.0 1 1 ctx-rh-inferiortemporal
56.0 2.0 -45.0 1 1 ctx-rh-inferiortemporal
62.0 1.0 -45.0 1 1 ctx-rh-inferiortemporal
68.0 2.0 -47.0 1 1 ctx-rh-middletemporal
-46.0 -26.0 3.5 1 1 ctx-lh-supramarginal
-52.0 -25.0 3.0 1 1 ctx-lh-superiortemporal
-17.0 -43.0 -18.0 1 1 ctx-lh-lingual
-23.0 -43.0 -18.0 1 1 ctx-lh-lingual
-39.0 -45.0 -19.0 1 1 ctx-lh-lateraloccipital
-43.5 -45.5 -21.0 1 1 ctx-lh-lateraloccipital
-48.0 -45.0 -21.5 1 1 ctx-lh-inferiortemporal
-5.0 73.0 -29.0 1 1 ctx-lh-medialorbitofrontal
-7.0 72.0 -26.0 1 1 ctx-lh-medialorbitofrontal
-25.0 72.0 -13.0 1 1 ctx-lh-rostralmiddlefrontal
-28.0 72.0 -10.0 1 1 ctx-lh-rostralmiddlefrontal
-3.0 44.0 2.0 1 1 ctx-lh-caudalanteriorcingulate
-6.0 36.0 -37.0 1 1 ctx-lh-medialorbitofrontal
-46.0 59.0 -27.0 1 1 ctx-lh-parstriangularis
-29.0 51.0 -32.0 1 1 ctx-lh-lateralorbitofrontal
-33.0 51.0 -32.0 1 1 ctx-lh-lateralorbitofrontal
-37.0 52.0 -31.0 1 1 ctx-lh-lateralorbitofrontal
-41.0 53.0 -32.0 1 1 ctx-lh-parsorbitalis
-38.0 58.5 -15.5 1 1 ctx-lh-parstriangularis
-41.0 58.5 -15.5 1 1 ctx-lh-parstriangularis
-13.0 -38.0 10.0 1 1 ctx-lh-precuneus
35.0 57.0 -14.0 1 1 ctx-rh-rostralmiddlefrontal
38.0 58.0 -12.5 1 1 ctx-rh-rostralmiddlefrontal
-42.0 15.0 -46.0 1 1 ctx-lh-middletemporal
-47.0 16.0 -47.0 1 1 ctx-lh-middletemporal
-54.0 17.0 -48.0 1 1 ctx-lh-middletemporal
-59.5 16.0 -48.0 1 1 ctx-lh-middletemporal
-65.5 16.0 -49.0 1 1 ctx-lh-middletemporal
-60.5 -1.5 -46.5 1 1 ctx-lh-inferiortemporal
-66.5 -1.0 -50.0 1 1 ctx-lh-inferiortemporal
-52.0 -24.0 -28.0 1 1 ctx-lh-inferiortemporal
-57.0 -25.0 -28.0 1 1 ctx-lh-inferiortemporal
6.0 19.0 23.0 1 1 ctx-rh-posteriorcingulate
33.0 14.5 25.0 1 1 ctx-rh-caudalmiddlefrontal
38.0 14.0 27.0 1 1 ctx-rh-precentral
41.0 16.0 -10.0 1 1 ctx-rh-insula
45.0 16.0 -8.0 1 1 ctx-rh-precentral
48.0 16.0 -7.0 1 1 ctx-rh-precentral
65.0 19.0 0.0 1 1 ctx-rh-precentral
67.0 19.0 1.0 1 1 ctx-rh-precentral
8.0 51.0 36.0 1 1 ctx-rh-superiorfrontal
11.0 50.0 35.0 1 1 ctx-rh-superiorfrontal
15.0 49.0 35.5 1 1 ctx-rh-superiorfrontal
18.0 47.0 36.0 1 1 ctx-rh-superiorfrontal
23.0 46.0 37.0 1 1 ctx-rh-superiorfrontal
26.0 43.0 36.0 1 1 ctx-rh-superiorfrontal
30.0 42.0 37.0 1 1 ctx-rh-superiorfrontal
34.0 41.0 38.0 1 1 ctx-rh-caudalmiddlefrontal
37.0 40.0 38.5 1 1 ctx-rh-caudalmiddlefrontal
8.0 20.0 41.0 1 1 ctx-rh-superiorfrontal
16.0 19.0 41.0 1 1 ctx-rh-superiorfrontal
20.0 17.0 41.0 1 1 ctx-rh-superiorfrontal
24.0 17.0 42.0 1 1 ctx-rh-superiorfrontal
27.0 17.0 43.0 1 1 ctx-rh-superiorfrontal
31.0 16.0 43.0 1 1 ctx-rh-superiorfrontal
36.0 15.0 42.0 1 1 ctx-rh-precentral
39.0 15.0 42.0 1 1 ctx-rh-precentral
53.0 16.0 -43.0 1 1 ctx-rh-middletemporal
57.0 17.0 -43.0 1 1 ctx-rh-middletemporal
61.0 18.0 -42.0 1 1 ctx-rh-middletemporal
17.5 -21.0 -21.0 1 1 Right-Hippocampus
24.0 -21.0 -19.0 1 1 Right-Hippocampus
27.0 -21.0 -20.0 1 1 Right-Hippocampus
32.0 -22.0 -20.0 1 1 Right-Hippocampus
69.0 -9.0 -34.0 1 1 ctx-rh-middletemporal
13.0 42.0 -41.0 1 1 ctx-rh-lateralorbitofrontal
43.0 47.0 -29.0 1 1 ctx-rh-parsorbitalis
46.0 48.0 -27.0 1 1 ctx-rh-parstriangularis
54.0 49.0 -25.5 1 1 ctx-rh-parsorbitalis
58.0 51.0 -25.0 1 1 ctx-rh-parsorbitalis
-52.0 10.0 -47.0 1 1 ctx-lh-middletemporal
-56.0 1.0 -42.0 1 1 ctx-lh-middletemporal
-59.0 1.0 -43.0 1 1 ctx-lh-middletemporal
-11.0 46.0 -40.0 1 1 ctx-lh-medialorbitofrontal
-16.0 45.0 -38.0 1 1 ctx-lh-lateralorbitofrontal
-20.0 46.0 -37.0 1 1 ctx-lh-lateralorbitofrontal
-44.0 46.0 -22.0 1 1 ctx-lh-parsorbitalis
-12.0 41.0 -24.5 1 1 Left-Caudate
-18.0 41.0 -23.5 1 1 Left-Caudate
-24.0 42.0 -22.0 1 1 ctx-lh-lateralorbitofrontal
-30.0 42.0 -22.0 1 1 ctx-lh-insula
-36.0 43.0 -20.0 1 1 ctx-lh-lateralorbitofrontal
-42.0 43.0 -21.0 1 1 ctx-lh-parsorbitalis
-47.0 44.0 -18.5 1 1 ctx-lh-parstriangularis
-52.0 45.0 -19.0 1 1 ctx-lh-parstriangularis
-14.0 -23.0 26.0 1 1 ctx-lh-precuneus
-20.0 -24.0 27.0 1 1 ctx-lh-paracentral
-31.0 -26.0 28.0 1 1 ctx-lh-superiorparietal
-37.0 -26.0 29.0 1 1 ctx-lh-superiorparietal
-42.0 -26.0 31.0 1 1 ctx-lh-supramarginal
-48.0 -26.0 32.0 1 1 ctx-lh-supramarginal
-37.0 28.0 6.0 1 1 ctx-lh-parsopercularis
-37.0 31.0 10.0 1 1 ctx-lh-caudalmiddlefrontal
-26.0 7.0 -33.0 1 1 Left-Amygdala
-31.0 8.0 -36.0 1 1 Left-Hippocampus
-46.0 10.0 -41.0 1 1 ctx-lh-middletemporal
-52.0 11.0 -41.0 1 1 ctx-lh-middletemporal
-56.0 13.0 -43.0 1 1 ctx-lh-middletemporal
-27.0 0.0 -32.0 1 1 Left-Hippocampus
-32.0 1.0 -34.0 1 1 Left-Hippocampus
-38.0 1.0 -35.0 1 1 Left-Hippocampus
-48.5 2.5 -35.5 1 1 ctx-lh-middletemporal
-55.0 4.0 -38.0 1 1 ctx-lh-middletemporal
-27.0 -11.0 -26.0 1 1 Left-Hippocampus
-32.5 -12.5 -26.5 1 1 Left-Hippocampus
-49.0 -18.0 -26.0 1 1 ctx-lh-middletemporal
-55.0 -19.0 -26.5 1 1 ctx-lh-middletemporal
-61.0 -21.0 -28.0 1 1 ctx-lh-middletemporal
-37.5 5.5 -38.5 1 1 Left-Hippocampus
-47.0 5.0 -37.0 1 1 ctx-lh-middletemporal
-53.0 5.0 -37.0 1 1 ctx-lh-middletemporal
-57.0 5.0 -37.0 1 1 ctx-lh-middletemporal
-62.0 5.0 -38.0 1 1 ctx-lh-middletemporal
-5.0 48.0 -37.0 1 1 ctx-lh-medialorbitofrontal
-10.0 50.0 -36.0 1 1 ctx-lh-medialorbitofrontal
-13.5 50.5 -34.5 1 1 ctx-lh-medialorbitofrontal
-11.5 53.0 -5.0 1 1 ctx-lh-rostralanteriorcingulate
-33.5 53.0 -1.5 1 1 ctx-lh-rostralmiddlefrontal
-15.0 40.0 10.0 1 1 ctx-lh-superiorfrontal
-31.0 44.0 13.0 1 1 ctx-lh-rostralmiddlefrontal
-35.5 45.0 14.5 1 1 ctx-lh-rostralmiddlefrontal
-30.5 -1.0 -8.0 1 1 Left-Putamen
-31.0 -5.0 -4.0 1 1 ctx-lh-insula
-30.0 -9.0 2.0 1 1 ctx-lh-insula
42.5 -13.0 7.0 1 1 ctx-rh-supramarginal
47.0 -12.0 8.0 1 1 ctx-rh-supramarginal
50.0 -12.0 9.0 1 1 ctx-rh-supramarginal
56.0 -13.0 9.0 1 1 ctx-rh-supramarginal
59.0 -12.0 8.0 1 1 ctx-rh-supramarginal
38.0 -22.0 -3.0 1 1 ctx-rh-supramarginal
41.0 -21.0 -3.0 1 1 ctx-rh-bankssts
45.0 -20.0 -3.0 1 1 ctx-rh-bankssts
50.0 -18.0 -2.0 1 1 ctx-rh-superiortemporal
53.0 -18.0 -3.0 1 1 ctx-rh-superiortemporal
59.0 -17.0 -3.0 1 1 ctx-rh-bankssts
-10.0 21.0 25.0 1 1 ctx-lh-superiorfrontal
-12.5 21.0 29.0 1 1 ctx-lh-superiorfrontal
-18.0 22.0 40.0 1 1 ctx-lh-superiorfrontal
-20.0 23.0 46.0 1 1 ctx-lh-superiorfrontal
-22.0 24.0 50.0 1 1 ctx-lh-superiorfrontal
-9.0 44.0 -33.0 1 1 ctx-lh-medialorbitofrontal
-14.0 59.0 -12.0 1 1 ctx-lh-rostralanteriorcingulate
-17.0 59.0 -9.0 1 1 ctx-lh-superiorfrontal
-36.0 61.5 -9.0 1 1 ctx-lh-rostralmiddlefrontal
-39.0 61.0 -9.0 1 1 ctx-lh-rostralmiddlefrontal
-43.0 62.0 -9.0 1 1 ctx-lh-rostralmiddlefrontal
-46.0 63.0 -8.0 1 1 ctx-lh-rostralmiddlefrontal
-10.0 -25.0 4.0 1 1 ctx-lh-isthmuscingulate
-44.0 -29.0 6.0 1 1 ctx-lh-inferiorparietal
-47.0 -29.0 7.0 1 1 ctx-lh-supramarginal
-50.0 -29.0 8.0 1 1 ctx-lh-supramarginal
-37.0 38.0 -12.0 1 1 ctx-lh-parsopercularis
-37.0 40.0 -7.0 1 1 ctx-lh-parsopercularis
-37.0 -28.0 -36.0 1 1 ctx-lh-fusiform
-41.0 -28.5 -36.0 1 1 ctx-lh-fusiform
-44.0 -29.0 -35.0 1 1 ctx-lh-inferiortemporal
-48.0 -29.0 -35.0 1 1 ctx-lh-inferiortemporal
-51.0 -30.0 -36.0 1 1 ctx-lh-inferiortemporal
-55.0 -30.5 -35.0 1 1 ctx-lh-inferiortemporal
-58.0 -31.0 -35.0 1 1 ctx-lh-inferiortemporal
-7.0 58.0 -22.0 1 1 ctx-lh-rostralanteriorcingulate
-15.0 58.0 -22.0 1 1 ctx-lh-medialorbitofrontal
-41.0 56.0 -20.0 1 1 ctx-lh-parstriangularis
-44.0 55.0 -19.0 1 1 ctx-lh-parstriangularis
-50.0 56.0 -18.0 1 1 ctx-lh-parstriangularis
-43.0 14.0 -43.0 1 1 ctx-lh-superiortemporal
-48.0 13.0 -44.0 1 1 ctx-lh-superiortemporal
-53.5 14.0 -42.0 1 1 ctx-lh-middletemporal
-59.0 13.0 -43.0 1 1 ctx-lh-middletemporal
-51.0 1.0 -37.0 1 1 ctx-lh-middletemporal
-56.0 1.0 -37.0 1 1 ctx-lh-middletemporal
-62.0 1.0 -36.0 1 1 ctx-lh-middletemporal
-67.0 1.0 -37.0 1 1 ctx-lh-middletemporal
-55.0 -12.0 -34.0 1 1 ctx-lh-inferiortemporal
-60.0 -13.0 -32.0 1 1 ctx-lh-middletemporal
-67.0 -13.0 -33.0 1 1 ctx-lh-middletemporal
4.0 -31.0 36.0 1 1 ctx-rh-precuneus
10.0 -33.0 38.0 1 1 ctx-rh-precuneus
14.0 -34.0 39.0 1 1 ctx-rh-precuneus
18.0 -37.0 41.0 1 1 ctx-rh-superiorparietal
24.0 -39.0 43.0 1 1 ctx-rh-superiorparietal
29.0 -41.0 44.0 1 1 ctx-rh-superiorparietal
34.0 -43.5 46.0 1 1 ctx-rh-superiorparietal
12.0 -20.0 20.0 1 1 ctx-rh-precuneus
17.0 -20.0 21.5 1 1 ctx-rh-paracentral
23.0 -21.0 21.0 1 1 ctx-rh-paracentral
34.0 -23.0 21.0 1 1 ctx-rh-superiorparietal
39.0 -24.0 23.0 1 1 ctx-rh-inferiorparietal
44.0 -23.0 24.0 1 1 ctx-rh-inferiorparietal
14.0 -58.0 5.0 1 1 ctx-rh-cuneus
19.0 -59.0 5.0 1 1 ctx-rh-cuneus
25.0 -59.0 7.0 1 1 ctx-rh-superiorparietal
29.0 -59.0 6.0 1 1 ctx-rh-superiorparietal
11.5 -57.0 -13.5 1 1 ctx-rh-pericalcarine
17.0 -57.0 -12.0 1 1 ctx-rh-pericalcarine
37.0 -59.0 -14.0 1 1 ctx-rh-lateraloccipital
42.0 -58.0 -13.0 1 1 ctx-rh-lateraloccipital
-11.0 50.0 -42.0 1 1 ctx-lh-lateralorbitofrontal
-15.0 50.0 -40.0 1 1 ctx-lh-lateralorbitofrontal
-18.0 50.0 -39.0 1 1 ctx-lh-lateralorbitofrontal
-21.5 51.0 -37.0 1 1 ctx-lh-lateralorbitofrontal
-25.0 51.0 -36.0 1 1 ctx-lh-lateralorbitofrontal
-29.0 51.0 -34.0 1 1 ctx-lh-lateralorbitofrontal
-31.0 52.0 -32.0 1 1 ctx-lh-lateralorbitofrontal
-35.0 52.0 -30.0 1 1 ctx-lh-lateralorbitofrontal
-38.0 53.0 -29.0 1 1 ctx-lh-lateralorbitofrontal
-49.0 -19.0 -10.0 1 1 ctx-lh-superiortemporal
-53.0 -19.0 -10.0 1 1 ctx-lh-superiortemporal
-57.0 -19.0 -10.0 1 1 ctx-lh-bankssts
-60.0 -18.0 -9.0 1 1 ctx-lh-bankssts
-65.0 -17.0 -10.0 1 1 ctx-lh-superiortemporal
-69.0 -17.0 -10.0 1 1 ctx-lh-superiortemporal
7.0 51.0 -37.0 1 1 ctx-rh-medialorbitofrontal
9.0 51.0 -35.0 1 1 ctx-rh-medialorbitofrontal
12.0 51.0 -34.0 1 1 ctx-rh-lateralorbitofrontal
47.0 -21.0 -4.0 1 1 ctx-rh-bankssts
59.0 -22.0 -4.0 1 1 ctx-rh-bankssts
63.0 -21.0 -5.0 1 1 ctx-rh-superiortemporal
65.0 -21.0 -5.0 1 1 ctx-rh-superiortemporal
69.0 -20.0 -6.0 1 1 ctx-rh-superiortemporal
-43.0 -3.0 -16.0 1 1 ctx-lh-transversetemporal
-47.0 -3.0 -16.0 1 1 ctx-lh-transversetemporal
-53.0 -3.0 -17.0 1 1 ctx-lh-superiortemporal
-58.5 -2.0 -17.0 1 1 ctx-lh-superiortemporal
-64.0 -1.0 -18.0 1 1 ctx-lh-superiortemporal
-69.0 0.0 -17.0 1 1 ctx-lh-superiortemporal
-31.5 54.0 -4.0 1 1 ctx-lh-rostralmiddlefrontal
-38.0 54.0 -3.0 1 1 ctx-lh-rostralmiddlefrontal
-43.0 55.0 -2.0 1 1 ctx-lh-rostralmiddlefrontal
-11.0 -30.0 9.0 1 1 ctx-lh-isthmuscingulate
-17.0 -30.0 10.0 1 1 ctx-lh-precuneus
-40.0 -30.0 11.0 1 1 ctx-lh-superiorparietal
-46.0 -30.0 11.0 1 1 ctx-lh-inferiorparietal
-52.5 -30.0 12.0 1 1 ctx-lh-supramarginal
-4.5 -68.5 -1.0 1 1 ctx-lh-cuneus
-20.5 -74.0 -1.0 1 1 ctx-lh-lateraloccipital
-27.0 -74.0 -1.0 1 1 ctx-lh-lateraloccipital
-40.0 -21.0 -18.0 1 1 ctx-lh-bankssts
-45.0 -20.0 -17.0 1 1 ctx-lh-bankssts
-49.0 -19.0 -16.0 1 1 ctx-lh-bankssts
-55.5 -19.0 -14.0 1 1 ctx-lh-bankssts
-60.0 -18.0 -14.0 1 1 ctx-lh-bankssts
-65.5 -18.0 -13.0 1 1 ctx-lh-bankssts
-11.0 -76.0 -27.0 1 1 ctx-lh-pericalcarine
-17.0 -78.0 -26.0 1 1 ctx-lh-pericalcarine
-23.0 -79.0 -24.0 1 1 ctx-lh-lateraloccipital
-13.0 -70.0 -13.0 1 1 ctx-lh-pericalcarine
-18.0 -72.0 -13.0 1 1 ctx-lh-lateraloccipital
-24.0 -73.0 -12.0 1 1 ctx-lh-lateraloccipital
-29.0 -74.0 -10.0 1 1 ctx-lh-lateraloccipital
-8.0 50.0 -36.0 1 1 ctx-lh-medialorbitofrontal
-12.0 51.5 -35.0 1 1 ctx-lh-medialorbitofrontal
-31.0 52.0 -26.0 1 1 ctx-lh-lateralorbitofrontal
-44.0 17.0 -46.0 1 1 ctx-lh-superiortemporal
-48.0 17.0 -46.0 1 1 ctx-lh-middletemporal
-52.0 17.0 -48.0 1 1 ctx-lh-middletemporal
-42.0 -3.0 -41.0 1 1 ctx-lh-fusiform
-45.0 -3.0 -41.0 1 1 ctx-lh-inferiortemporal
-49.0 -4.0 -40.0 1 1 ctx-lh-inferiortemporal
-53.0 -3.0 -41.0 1 1 ctx-lh-inferiortemporal
-58.0 -4.0 -41.0 1 1 ctx-lh-middletemporal
-40.0 -27.0 -30.0 1 1 ctx-lh-fusiform
-44.0 -28.0 -30.0 1 1 ctx-lh-inferiortemporal
-47.0 -28.0 -29.0 1 1 ctx-lh-inferiortemporal
-50.0 -29.0 -28.0 1 1 ctx-lh-inferiortemporal
-54.0 -30.0 -29.0 1 1 ctx-lh-inferiortemporal
-58.0 -31.0 -28.0 1 1 ctx-lh-inferiortemporal
-63.0 -32.0 -29.0 1 1 ctx-lh-inferiortemporal
12.0 48.0 -43.0 1 1 ctx-rh-lateralorbitofrontal
23.0 49.0 -39.0 1 1 ctx-rh-lateralorbitofrontal
27.0 50.0 -38.0 1 1 ctx-rh-lateralorbitofrontal
30.0 50.0 -36.0 1 1 ctx-rh-lateralorbitofrontal
32.0 51.0 -34.0 1 1 ctx-rh-lateralorbitofrontal
35.0 52.0 -32.0 1 1 ctx-rh-lateralorbitofrontal
52.0 -7.0 -39.5 1 1 ctx-rh-inferiortemporal
55.0 -5.0 -42.0 1 1 ctx-rh-inferiortemporal
58.0 -4.0 -42.0 1 1 ctx-rh-inferiortemporal
61.0 -4.0 -42.0 1 1 ctx-rh-inferiortemporal
51.0 -17.0 -26.0 1 1 ctx-rh-middletemporal
55.0 -17.0 -26.0 1 1 ctx-rh-middletemporal
59.0 -17.0 -26.0 1 1 ctx-rh-middletemporal
61.0 -17.0 -25.0 1 1 ctx-rh-middletemporal
65.0 -16.0 -25.0 1 1 ctx-rh-middletemporal
-37.0 14.5 -43.0 1 1 ctx-lh-superiortemporal
-39.0 15.0 -44.0 1 1 ctx-lh-superiortemporal
-43.0 15.0 -45.0 1 1 ctx-lh-middletemporal
-47.0 16.0 -46.0 1 1 ctx-lh-middletemporal
-50.0 3.0 -36.0 1 1 ctx-lh-middletemporal
-43.0 -30.0 -14.5 1 1 ctx-lh-bankssts
-45.0 -33.0 -12.0 1 1 ctx-lh-bankssts
45.0 -4.0 -41.0 1 1 ctx-rh-inferiortemporal
44.0 -41.0 -22.0 1 1 ctx-rh-lateraloccipital
45.0 -44.0 -20.0 1 1 ctx-rh-lateraloccipital
37.0 -17.5 -32.0 1 1 ctx-rh-fusiform
41.0 -19.0 -30.0 1 1 ctx-rh-fusiform
54.0 -27.0 -23.0 1 1 ctx-rh-middletemporal
60.0 -29.0 -21.0 1 1 ctx-rh-middletemporal
66.0 -32.0 -22.0 1 1 ctx-rh-middletemporal
70.0 -34.0 -18.0 1 1 ctx-rh-middletemporal
50.0 -23.0 -18.0 1 1 ctx-rh-bankssts
56.0 -23.0 -16.0 1 1 ctx-rh-bankssts
64.0 -23.0 -17.0 1 1 ctx-rh-middletemporal
70.0 -23.0 -16.5 1 1 ctx-rh-middletemporal
75.0 -23.0 -16.0 1 1 ctx-rh-middletemporal
44.0 -40.0 -20.0 1 1 ctx-rh-inferiortemporal
50.0 -43.0 -19.0 1 1 ctx-rh-inferiortemporal
56.0 -45.0 -20.0 1 1 ctx-rh-inferiortemporal
62.0 -47.0 -21.0 1 1 ctx-rh-inferiortemporal
17.5 -38.0 -5.5 1 1 ctx-rh-precuneus
24.0 -39.0 -5.0 1 1 ctx-rh-precuneus
29.0 -41.0 -5.0 1 1 ctx-rh-precuneus
38.5 -43.0 -4.0 1 1 ctx-rh-inferiorparietal
45.42923355102539 31.634921073913574 23.70502471923828 1 1 ctx-rh-caudalmiddlefrontal
47.523616790771484 28.373271942138672 12.690092086791992 1 1 ctx-rh-caudalmiddlefrontal
49.89668655395508 23.299912929534912 3.928508758544922 1 1 ctx-rh-precentral
11.501989364624023 -48.71617889404297 -14.021883487701416 1 1 ctx-rh-pericalcarine
19.227563858032227 -48.88140869140625 -25.336538314819336 1 1 ctx-rh-lingual
44.5 48.56521797180176 -30.78260898590088 1 1 ctx-rh-parsorbitalis
45.47618865966797 40.214284896850586 -26.0 1 1 ctx-rh-parsorbitalis
44.97618865966797 29.189285278320312 -19.050000000745058 1 1 ctx-rh-parsopercularis
43.33333206176758 57.45833206176758 -1.854166030883789 1 1 ctx-rh-rostralmiddlefrontal
44.07638931274414 47.435184478759766 4.7893524169921875 1 1 ctx-rh-rostralmiddlefrontal
44.74603271484375 39.08994674682617 11.30423355102539 1 1 ctx-rh-rostralmiddlefrontal
46.02381134033203 30.48051929473877 17.702381134033203 1 1 ctx-rh-caudalmiddlefrontal
63.10960006713867 -42.95833206176758 -10.856884002685547 1 1 ctx-rh-middletemporal
64.23460006713867 -36.35416793823242 1.413949966430664 1 1 ctx-rh-inferiorparietal
61.62916564941406 -29.02916717529297 10.979166030883789 1 1 ctx-rh-supramarginal
58.025001525878906 -20.62738037109375 19.047618865966797 1 1 ctx-rh-supramarginal
70.42308044433594 -6.115385055541992 -15.038461446762085 1 1 ctx-rh-superiortemporal
66.25529479980469 6.805294036865234 0.3023529052734375 1 1 ctx-rh-postcentral
64.52000045776367 13.259999990463257 8.620000839233398 1 1 ctx-rh-postcentral
61.0 17.983478248119354 16.808696746826172 1 1 ctx-rh-precentral
29.47916603088379 -36.69711685180664 56.916664123535156 1 1 ctx-rh-superiorparietal
28.233333587646484 -23.851280212402344 57.81666564941406 1 1 ctx-rh-superiorparietal
25.712499618530273 -11.779167175292969 57.23332977294922 1 1 ctx-rh-postcentral
22.97916603088379 -2.105978012084961 56.55796813964844 1 1 ctx-rh-precentral
40.02000045776367 6.520000457763672 -26.71999979019165 1 1 ctx-rh-insula
44.5 11.692307472229004 -28.192307472229004 1 1 ctx-rh-insula
51.766666412353516 45.683332443237305 -30.550000190734863 1 1 ctx-rh-parsorbitalis
50.20833206176758 55.39583206176758 -24.8125 1 1 ctx-rh-parstriangularis
66.12000274658203 17.03999999910593 -6.479999542236328 1 1 ctx-rh-postcentral
62.13999938964844 23.0625 3.2024993896484375 1 1 ctx-rh-precentral
48.02083206176758 41.875905990600586 28.185688018798828 1 1 ctx-rh-caudalmiddlefrontal
37.5 46.6467399597168 36.22735595703125 1 1 ctx-rh-caudalmiddlefrontal
26.4761905670166 49.83928680419922 42.36606979370117 1 1 ctx-rh-superiorfrontal
9.0 74.25818252563477 16.790908813476562 1 1 ctx-rh-superiorfrontal
6.519999980926514 40.31999969482422 15.240001678466797 1 1 ctx-rh-caudalanteriorcingulate
7.0 55.02000045776367 20.299999237060547 1 1 ctx-rh-superiorfrontal
5.546739101409912 30.94021701812744 22.76956558227539 1 1 ctx-rh-superiorfrontal
6.5217390060424805 42.648550033569336 26.452899932861328 1 1 ctx-rh-superiorfrontal
34.050838470458984 61.58991622924805 29.568065643310547 1 1 ctx-rh-rostralmiddlefrontal
29.77941131591797 55.056148529052734 36.632354736328125 1 1 ctx-rh-superiorfrontal
22.774192810058594 48.21554183959961 42.50806427001953 1 1 ctx-rh-superiorfrontal
67.5 0.6097831726074219 5.882608413696289 1 1 ctx-rh-supramarginal
64.74074172973633 14.952777862548828 15.599998474121094 1 1 ctx-rh-postcentral
58.10280990600586 28.139846801757812 22.689655303955078 1 1 ctx-rh-precentral
51.36206817626953 37.21921157836914 26.189655303955078 1 1 ctx-rh-caudalmiddlefrontal
8.522727489471436 55.431819915771484 -41.259090423583984 1 1 ctx-rh-medialorbitofrontal
18.543560028076172 49.369319915771484 -37.20075798034668 1 1 ctx-rh-lateralorbitofrontal
27.52083396911621 45.9157600402832 -32.82427501678467 1 1 ctx-rh-lateralorbitofrontal
31.07158088684082 77.60256576538086 -14.095085620880127 1 1 ctx-rh-rostralmiddlefrontal
38.742149353027344 71.58333206176758 -17.283212542533875 1 1 ctx-rh-rostralmiddlefrontal
43.57441329956055 64.51922988891602 -20.168896317481995 1 1 ctx-rh-parstriangularis
24.0 -21.974998474121094 16.450000762939453 1 1 ctx-rh-superiorparietal
22.0 -30.0 24.0 1 1 ctx-rh-superiorparietal
19.83333396911621 -38.0625 31.5 1 1 ctx-rh-superiorparietal
17.602563858032227 -46.02404022216797 39.0 1 1 ctx-rh-superiorparietal
16.060897827148438 -53.96154022216797 46.5 1 1 ctx-rh-superiorparietal
36.712120056152344 -42.1861457824707 -6.29437255859375 1 1 ctx-rh-lateraloccipital
38.25714111328125 -51.109527587890625 -0.7190475463867188 1 1 ctx-rh-inferiorparietal
39.25714111328125 -60.5142822265625 6.257143020629883 1 1 ctx-rh-inferiorparietal
40.71154022216797 -69.42308044433594 13.038459777832031 1 1 ctx-rh-inferiorparietal
44.46428680419922 -54.47321319580078 28.83928680419922 1 1 ctx-rh-inferiorparietal
51.96428680419922 -49.45237731933594 23.547618865966797 1 1 ctx-rh-inferiorparietal
57.04999923706055 -43.56666564941406 18.63333511352539 1 1 ctx-rh-inferiorparietal
62.514286041259766 -35.18571472167969 14.585712432861328 1 1 ctx-rh-inferiorparietal
25.952381134033203 -25.952381134033203 23.119049072265625 1 1 ctx-rh-superiorparietal
56.619049072265625 -29.119049072265625 44.03571319580078 1 1 ctx-rh-inferiorparietal
62.08333206176758 -22.583332061767578 37.25 1 1 ctx-rh-inferiorparietal
60.0 39.25 3.0 1 1 ctx-rh-parsopercularis
68.47222137451172 -15.722221374511719 0.3055553436279297 1 1 ctx-rh-superiortemporal
69.5 -27.5 0.0 1 1 ctx-rh-supramarginal
3.25 8.75 28.0 1 1 ctx-rh-paracentral
4.0 3.5 39.0 1 1 ctx-rh-paracentral
4.5 0.5 50.0 1 1 ctx-rh-paracentral
3.0 -8.75 33.5 1 1 ctx-rh-paracentral
3.0 -9.25 42.25 1 1 ctx-rh-paracentral
5.0 -9.75 52.25 1 1 ctx-rh-paracentral
3.0 -17.75 37.25 1 1 ctx-rh-paracentral
4.75 -19.75 47.75 1 1 ctx-rh-paracentral
6.527777671813965 -22.22222137451172 57.30555725097656 1 1 ctx-rh-postcentral
39.5 7.75 -9.583333015441895 1 1 ctx-rh-insula
39.5 6.0 -8.0 1 1 ctx-rh-insula
36.5 12.25 -9.0 1 1 ctx-rh-insula
58.29999923706055 24.0 -46.14999961853027 1 1 ctx-rh-middletemporal
62.5 17.0 -38.75 1 1 ctx-rh-middletemporal
67.30000305175781 9.5 -31.899999618530273 1 1 ctx-rh-middletemporal
52.5217399597168 46.31630516052246 -11.584782600402832 1 1 ctx-rh-parstriangularis
54.497928619384766 35.24844741821289 -12.458591938018799 1 1 ctx-rh-parsopercularis
52.0 56.20075607299805 -0.05492401123046875 1 1 ctx-rh-rostralmiddlefrontal
55.5 46.428030014038086 -0.5776519775390625 1 1 ctx-rh-parstriangularis
55.733333587646484 35.75303077697754 -0.3984851837158203 1 1 ctx-rh-parsopercularis
57.233333587646484 24.757970809936523 -0.7384052276611328 1 1 ctx-rh-precentral
45.0625 57.43452453613281 13.610118865966797 1 1 ctx-rh-rostralmiddlefrontal
51.4782600402832 49.287784576416016 12.765010833740234 1 1 ctx-rh-rostralmiddlefrontal
54.9782600402832 38.82608604431152 11.913043975830078 1 1 ctx-rh-rostralmiddlefrontal
57.5 26.68782615661621 10.915651321411133 1 1 ctx-rh-precentral
60.02381134033203 14.435238122940063 9.886667251586914 1 1 ctx-rh-postcentral
60.747947692871094 2.715928077697754 9.218391418457031 1 1 ctx-rh-postcentral
27.78939437866211 -62.642425537109375 -26.46666669845581 1 1 ctx-rh-lateraloccipital
37.266666412353516 -57.66515350341797 -27.557576179504395 1 1 ctx-rh-lateraloccipital
45.212120056152344 -52.99242401123047 -26.96969699859619 1 1 ctx-rh-lateraloccipital
60.5 -38.4523811340332 -17.38095235824585 1 1 ctx-rh-middletemporal
37.21428680419922 -71.6412353515625 1.086038589477539 1 1 ctx-rh-inferiorparietal
45.52381134033203 -63.385284423828125 3.1158008575439453 1 1 ctx-rh-inferiorparietal
52.62797546386719 -54.580360412597656 2.464284896850586 1 1 ctx-rh-inferiorparietal
58.5 33.5325927734375 -34.948147773742676 1 1 ctx-rh-superiortemporal
62.5 32.0325927734375 -33.948147773742676 1 1 ctx-rh-superiortemporal
55.0 55.880001068115234 -16.59999990463257 1 1 ctx-rh-parstriangularis
57.47916793823242 49.002498626708984 -14.96666669845581 1 1 ctx-rh-parstriangularis
58.97916793823242 41.5625 -14.266666889190674 1 1 ctx-rh-parsopercularis
59.5 34.41304397583008 -11.252173900604248 1 1 ctx-rh-parsopercularis
61.266666412353516 27.91304302215576 -9.102173805236816 1 1 ctx-rh-precentral
64.76666641235352 20.33999991416931 -10.229999542236328 1 1 ctx-rh-precentral
55.0 58.349998474121094 -0.5 1 1 ctx-rh-parstriangularis
58.5 51.49673843383789 -0.6673908233642578 1 1 ctx-rh-parstriangularis
60.0 43.58992004394531 0.6916999816894531 1 1 ctx-rh-parsopercularis
61.0 37.06818199157715 1.809091567993164 1 1 ctx-rh-parsopercularis
64.82758712768555 30.603447914123535 1.658620834350586 1 1 ctx-rh-precentral
70.32758331298828 22.07844829559326 1.3086204528808594 1 1 ctx-rh-precentral
75.0 12.427381038665771 1.9309520721435547 1 1 ctx-rh-postcentral
10.523809432983398 46.92738151550293 -48.878570556640625 1 1 ctx-rh-lateralorbitofrontal
21.0238094329834 52.2023811340332 -45.928571701049805 1 1 ctx-rh-lateralorbitofrontal
42.0 50.060001373291016 -38.70000076293945 1 1 ctx-rh-lateralorbitofrontal
48.5 45.584999084472656 -32.75 1 1 ctx-rh-parsorbitalis
35.477272033691406 30.530909538269043 -13.57272720336914 1 1 ctx-rh-insula
41.50108337402344 32.68614673614502 -18.225108206272125 1 1 ctx-rh-parsopercularis
36.5 27.7619047164917 -14.071428775787354 1 1 ctx-rh-insula
42.022727966308594 29.116883277893066 -16.160173177719116 1 1 ctx-rh-parsopercularis
61.46154022216797 0.8823070526123047 -27.569231033325195 1 1 ctx-rh-middletemporal
37.63492202758789 -10.527778625488281 -52.734127044677734 1 1 ctx-rh-fusiform
40.429901123046875 -8.673099517822266 -52.633201599121094 1 1 ctx-rh-fusiform
42.86130142211914 -6.019199371337891 -53.18539810180664 1 1 ctx-rh-fusiform
47.53845977783203 -1.286153793334961 -55.43077087402344 1 1 ctx-rh-inferiortemporal
38.97916793823242 -9.541666030883789 -51.54166793823242 1 1 ctx-rh-fusiform
46.47916793823242 -11.101667404174805 -51.09166717529297 1 1 ctx-rh-inferiortemporal
55.0 -13.516521453857422 -51.69130325317383 1 1 ctx-rh-inferiortemporal
65.0227279663086 -12.661067962646484 -48.32312202453613 1 1 ctx-rh-inferiortemporal
72.5227279663086 -5.729545593261719 -40.381818771362305 1 1 ctx-rh-middletemporal
72.5 3.8249998092651367 -31.899999618530273 1 1 ctx-rh-middletemporal
37.5 -71.98347473144531 -35.80869483947754 1 1 ctx-rh-lateraloccipital
47.83871078491211 -64.56903076171875 -34.52258110046387 1 1 ctx-rh-lateraloccipital
55.83871078491211 -57.033790588378906 -32.70353317260742 1 1 ctx-rh-lateraloccipital
65.5250015258789 -43.92976379394531 -29.355952262878418 1 1 ctx-rh-inferiortemporal
74.0250015258789 -28.584999084472656 -25.77500009536743 1 1 ctx-rh-middletemporal
74.5 -17.367691040039062 -22.492307662963867 1 1 ctx-rh-middletemporal
71.5 -2.7362632751464844 -17.71611726284027 1 1 ctx-rh-superiortemporal
34.0476188659668 -68.46428680419922 0.3809528350830078 1 1 ctx-rh-lateraloccipital
38.53333282470703 -62.349998474121094 5.466667175292969 1 1 ctx-rh-inferiorparietal
9.949999809265137 -58.400001525878906 -20.450000047683716 1 1 ctx-rh-lingual
6.5 -60.333335876464844 11.083333969116211 1 1 ctx-rh-cuneus
52.5 57.5 1.25 1 1 ctx-rh-rostralmiddlefrontal
53.0 49.5 8.75 1 1 ctx-rh-rostralmiddlefrontal
53.75 40.83333396911621 15.25 1 1 ctx-rh-rostralmiddlefrontal
59.96428680419922 24.809523582458496 11.761905670166016 1 1 ctx-rh-precentral
56.0 41.58333396911621 -18.25 1 1 ctx-rh-parsopercularis
34.33333206176758 68.75 -33.0 1 1 ctx-rh-rostralmiddlefrontal
43.0 65.83333206176758 -32.333333015441895 1 1 ctx-rh-parsorbitalis
12.380952835083008 74.46428680419922 24.880950927734375 1 1 ctx-rh-superiorfrontal
15.464285850524902 64.71428680419922 30.46428680419922 1 1 ctx-rh-superiorfrontal
19.0625 54.1875 35.625 1 1 ctx-rh-superiorfrontal
21.47916603088379 45.52083396911621 40.125 1 1 ctx-rh-superiorfrontal
23.0238094329834 36.261905670166016 45.03571319580078 1 1 ctx-rh-superiorfrontal
24.5238094329834 25.15079402923584 50.23015594482422 1 1 ctx-rh-superiorfrontal
26.452381134033203 13.79365086555481 55.73015594482422 1 1 ctx-rh-superiorfrontal
24.08333396911621 51.5 26.666667938232422 1 1 ctx-rh-superiorfrontal
27.850000381469727 43.04999923706055 32.79999923706055 1 1 ctx-rh-superiorfrontal
29.933332443237305 33.96666717529297 38.54999923706055 1 1 ctx-rh-caudalmiddlefrontal
29.89285659790039 69.78571319580078 7.321428298950195 1 1 ctx-rh-rostralmiddlefrontal
30.89285659790039 58.9523811340332 13.404762268066406 1 1 ctx-rh-rostralmiddlefrontal
34.0 49.41666793823242 19.333332061767578 1 1 ctx-rh-rostralmiddlefrontal
37.10714340209961 40.035715103149414 24.571430206298828 1 1 ctx-rh-rostralmiddlefrontal
38.5 30.571428298950195 30.64285659790039 1 1 ctx-rh-caudalmiddlefrontal
37.5 66.125 -2.75 1 1 ctx-rh-rostralmiddlefrontal
38.52083206176758 55.64583206176758 4.375 1 1 ctx-rh-rostralmiddlefrontal
40.5476188659668 46.0476188659668 10.035715103149414 1 1 ctx-rh-rostralmiddlefrontal
43.0476188659668 36.464284896850586 15.452381134033203 1 1 ctx-rh-rostralmiddlefrontal
42.849998474121094 61.63333511352539 -14.53333330154419 1 1 ctx-rh-rostralmiddlefrontal
43.5 51.5 -7.0 1 1 ctx-rh-parstriangularis
45.0625 41.85416603088379 0.20833396911621094 1 1 ctx-rh-rostralmiddlefrontal
43.66666793823242 55.625 -25.5 1 1 ctx-rh-parstriangularis
46.75 45.875 -17.75 1 1 ctx-rh-parstriangularis
49.96428680419922 36.964284896850586 -10.285714149475098 1 1 ctx-rh-parsopercularis
53.02678680419922 27.589285850524902 -3.9732141494750977 1 1 ctx-rh-precentral
56.0625 18.041666626930237 3.145833969116211 1 1 ctx-rh-precentral
47.35714340209961 28.292207717895508 -20.396103858947754 1 1 ctx-rh-parsopercularis
51.85714340209961 19.897321462631226 -13.245535850524902 1 1 ctx-rh-precentral
55.75 10.96875 -6.28125 1 1 ctx-rh-postcentral
43.25 77.29999923706055 -20.950000047683716 1 1 ctx-rh-rostralmiddlefrontal
38.0 82.33333587646484 -9.083333015441895 1 1 ctx-rh-rostralmiddlefrontal
44.66964340209961 27.401785850524902 -60.19643020629883 1 1 ctx-rh-middletemporal
51.66964340209961 25.401785850524902 -55.69643020629883 1 1 ctx-rh-middletemporal
52.64285659790039 20.5 -46.85714340209961 1 1 ctx-rh-middletemporal
53.38571548461914 17.585714280605316 -36.985713958740234 1 1 ctx-rh-superiortemporal
54.849998474121094 15.049999952316284 -27.199999809265137 1 1 ctx-rh-superiortemporal
14.0 -18.769229888916016 66.53845977783203 1 1 ctx-rh-postcentral
41.52000045776367 -11.979999542236328 59.26000213623047 1 1 ctx-rh-postcentral
58.0 -5.230770111083984 38.96154022216797 1 1 ctx-rh-postcentral
64.0 -2.2692298889160156 15.038459777832031 1 1 ctx-rh-supramarginal
15.821428298950195 80.21428680419922 -28.035714149475098 1 1 ctx-rh-rostralmiddlefrontal
49.900001525878906 34.375 -20.799999952316284 1 1 ctx-rh-parsopercularis
23.75 54.75 38.36111068725586 1 1 ctx-rh-superiorfrontal
45.0 47.875 18.5 1 1 ctx-rh-rostralmiddlefrontal
50.5 34.196428298950195 -3.2142858505249023 1 1 ctx-rh-parsopercularis
62.25 -21.27857208251953 -33.514286041259766 1 1 ctx-rh-middletemporal
56.0 16.821428567171097 5.452381134033203 1 1 ctx-rh-precentral
58.025001525878906 -18.4375 19.012500762939453 1 1 ctx-rh-supramarginal
14.0 -32.271427154541016 17.814285278320312 1 1 ctx-rh-precuneus
15.375 -32.13393020629883 28.40178680419922 1 1 ctx-rh-precuneus
17.23214340209961 -29.0625 40.97321319580078 1 1 ctx-rh-precuneus
37.599998474121094 9.928571224212646 -14.985714435577393 1 1 ctx-rh-insula
34.72222137451172 4.7063493728637695 -5.341269493103027 1 1 ctx-rh-insula
31.5 -0.7777786254882812 5.166666030883789 1 1 ctx-rh-insula
32.91666603088379 -34.7976188659668 -26.9880952835083 1 1 ctx-rh-fusiform
37.875 -58.5 -16.75 1 1 ctx-rh-lateraloccipital
53.86507797241211 59.72222137451172 -12.158730030059814 1 1 ctx-rh-parstriangularis
56.78571319580078 38.714284896850586 -5.357142448425293 1 1 ctx-rh-parsopercularis
57.025001525878906 29.362500190734863 18.012500762939453 1 1 ctx-rh-precentral
35.59722137451172 29.00694465637207 47.97222137451172 1 1 ctx-rh-caudalmiddlefrontal
15.4880952835083 34.30952453613281 54.369049072265625 1 1 ctx-rh-superiorfrontal
10.0 45.071428298950195 -30.464285850524902 1 1 ctx-rh-medialorbitofrontal
18.3125 42.991071701049805 20.46428680419922 1 1 ctx-rh-superiorfrontal
15.865078926086426 37.22222137451172 11.341270446777344 1 1 ctx-rh-superiorfrontal
17.785715103149414 37.0 23.071430206298828 1 1 ctx-rh-superiorfrontal
19.45535659790039 36.875 34.09821319580078 1 1 ctx-rh-superiorfrontal
56.75 -42.38571548461914 -33.22857189178467 1 1 ctx-rh-inferiortemporal
71.44999694824219 -17.212501525878906 -21.987499952316284 1 1 ctx-rh-middletemporal
54.33333206176758 -39.71666717529297 25.349998474121094 1 1 ctx-rh-inferiorparietal
63.66666793823242 -11.733333587646484 20.38333511352539 1 1 ctx-rh-supramarginal
15.75 -33.04999923706055 22.433334350585938 1 1 ctx-rh-precuneus
15.535714149475098 -35.014286041259766 33.67142868041992 1 1 ctx-rh-precuneus
15.160714149475098 -36.96428680419922 44.50893020629883 1 1 ctx-rh-superiorparietal
39.0 17.5 -18.0 1 1 ctx-rh-insula
38.47142791748047 9.242856979370117 -9.114285469055176 1 1 ctx-rh-insula
36.64285659790039 3.9285717010498047 -1.5714282989501953 1 1 ctx-rh-insula
39.10714340209961 -37.42856979370117 -24.309523582458496 1 1 ctx-rh-inferiortemporal
28.16666603088379 33.41666603088379 -10.583333015441895 1 1 ctx-rh-insula
29.089284896850586 37.071428298950195 8.964284896850586 1 1 ctx-rh-caudalmiddlefrontal
29.5 40.14285659790039 20.64285659790039 1 1 ctx-rh-caudalmiddlefrontal
46.35416793823242 66.94444274902344 -30.034722328186035 1 1 ctx-rh-parsorbitalis
51.16666793823242 57.94444274902344 -26.722222328186035 1 1 ctx-rh-parstriangularis
54.5 47.625 -22.125 1 1 ctx-rh-parstriangularis
56.75 38.625 -19.625 1 1 ctx-rh-parsopercularis
59.63888931274414 29.166666984558105 -17.722222208976746 1 1 ctx-rh-precentral
64.63888931274414 18.666666626930237 -15.222222328186035 1 1 ctx-rh-superiortemporal
40.375 68.0999984741211 1.5499992370605469 1 1 ctx-rh-rostralmiddlefrontal
47.625 59.0 1.25 1 1 ctx-rh-rostralmiddlefrontal
53.41666793823242 49.05555725097656 1.2222213745117188 1 1 ctx-rh-parstriangularis
57.79166793823242 39.68055534362793 -1.2777786254882812 1 1 ctx-rh-parsopercularis
50.25 39.54166603088379 19.791667938232422 1 1 ctx-rh-rostralmiddlefrontal
55.5 33.66666603088379 14.166667938232422 1 1 ctx-rh-precentral
59.5 26.666666984558105 5.666666030883789 1 1 ctx-rh-precentral
60.5 -16.75 -38.5 1 1 ctx-rh-inferiortemporal
63.75 -14.350000381469727 -31.300000190734863 1 1 ctx-rh-middletemporal
59.25 -34.375 26.875 1 1 ctx-rh-inferiorparietal
64.6500015258789 -29.25 18.25 1 1 ctx-rh-inferiorparietal
66.7125015258789 -23.25 11.0625 1 1 ctx-rh-supramarginal
68.0625 -17.833332061767578 2.979166030883789 1 1 ctx-rh-supramarginal
67.5 -11.666666030883789 -6.1666669845581055 1 1 ctx-rh-superiortemporal
67.05000305175781 -5.433332443237305 -14.333333492279053 1 1 ctx-rh-superiortemporal
50.9375 -33.16666793823242 39.52083206176758 1 1 ctx-rh-inferiorparietal
57.9375 -29.666667938232422 34.02083206176758 1 1 ctx-rh-inferiorparietal
62.5 -22.416667938232422 27.833332061767578 1 1 ctx-rh-inferiorparietal
66.16666412353516 -16.333332061767578 18.75 1 1 ctx-rh-supramarginal
67.66666412353516 -11.083333969116211 8.5 1 1 ctx-rh-supramarginal
66.75 -5.0 0.75 1 1 ctx-rh-supramarginal
64.75 0.6666660308837891 -5.8333330154418945 1 1 ctx-rh-supramarginal
38.0 -64.0 23.5 1 1 ctx-rh-inferiorparietal
37.36111068725586 -55.611114501953125 34.09722137451172 1 1 ctx-rh-inferiorparietal
22.25 -69.75 28.5 1 1 ctx-rh-superiorparietal
23.25 -62.5 38.25 1 1 ctx-rh-superiorparietal
55.29166793823242 -31.375 20.0 1 1 ctx-rh-inferiorparietal
60.477779388427734 -35.38888931274414 -2.088888168334961 1 1 ctx-rh-inferiorparietal
57.95000076293945 -45.0 -1.0750007629394531 1 1 ctx-rh-middletemporal
65.32857513427734 -16.25 -16.41428565979004 1 1 ctx-rh-superiortemporal
60.14285659790039 -42.28571319580078 -13.821428775787354 1 1 ctx-rh-middletemporal
66.82142639160156 0.8999996185302734 -30.08571434020996 1 1 ctx-rh-middletemporal
67.22142791748047 -8.149999618530273 -29.035714149475098 1 1 ctx-rh-middletemporal
67.9000015258789 -16.650001525878906 -28.0 1 1 ctx-rh-middletemporal
67.0999984741211 -24.650001525878906 -27.5 1 1 ctx-rh-middletemporal
64.68333435058594 -32.81666564941406 -27.0 1 1 ctx-rh-middletemporal
2.666666626930237 -67.94444274902344 9.472221374511719 1 1 ctx-rh-cuneus
4.666666746139526 -63.94444274902344 24.97222137451172 1 1 ctx-rh-precuneus
4.625 -60.5 34.0 1 1 ctx-rh-superiorparietal
6.375 -53.5 47.375 1 1 ctx-rh-superiorparietal
3.200000047683716 -80.5 -10.050000190734863 1 1 ctx-rh-cuneus
1.6363636255264282 -79.86363983154297 5.522727966308594 1 1 ctx-rh-superiorparietal
2.3636363744735718 -79.86363983154297 21.522727966308594 1 1 ctx-rh-superiorparietal
1.8333333134651184 -70.34444427490234 -11.97777795791626 1 1 ctx-lh-cuneus
1.75 -68.4000015258789 -1.7000007629394531 1 1 ctx-rh-cuneus
1.75 -65.91666412353516 9.166666030883789 1 1 ctx-rh-cuneus
2.75 -63.916664123535156 22.541667938232422 1 1 ctx-rh-superiorparietal
4.75 -61.0 35.625 1 1 ctx-rh-superiorparietal
21.964284896850586 -60.03571319580078 -33.2857141494751 1 1 ctx-rh-lingual
31.514286041259766 -52.4857177734375 -31.285714149475098 1 1 ctx-rh-fusiform
48.20000076293945 -37.95000076293945 -33.25 1 1 ctx-rh-fusiform
55.41428756713867 -27.914287567138672 -31.785714149475098 1 1 ctx-rh-inferiortemporal
66.38095092773438 -16.547618865966797 -12.464285850524902 1 1 ctx-rh-superiortemporal
59.41428756713867 28.485713958740234 -19.714285731315613 1 1 ctx-rh-precentral
64.61904907226562 -11.952381134033203 -2.035715103149414 1 1 ctx-rh-superiortemporal
54.28571319580078 44.964284896850586 -15.035714387893677 1 1 ctx-rh-parstriangularis
56.619049072265625 50.46428680419922 -2.547618865966797 1 1 ctx-rh-parstriangularis
53.58333206176758 57.5 8.666666030883789 1 1 ctx-rh-rostralmiddlefrontal
54.04999923706055 48.95000076293945 13.5 1 1 ctx-rh-rostralmiddlefrontal
58.60714340209961 -51.58928680419922 -18.42857140302658 1 1 ctx-rh-lateraloccipital
59.10714340209961 -48.21428680419922 -6.178571701049805 1 1 ctx-rh-middletemporal
60.5 -44.5 7.5 1 1 ctx-rh-inferiorparietal
60.41666793823242 -38.75 18.083332061767578 1 1 ctx-rh-inferiorparietal
58.91666793823242 -32.5 26.833332061767578 1 1 ctx-rh-inferiorparietal
58.08333206176758 -28.416667938232422 35.75 1 1 ctx-rh-inferiorparietal
55.51515197753906 -23.30303192138672 42.29545593261719 1 1 ctx-rh-superiorparietal
59.66666793823242 -35.66666793823242 -18.5 1 1 ctx-rh-middletemporal
60.58333206176758 -29.666667938232422 -5.9166669845581055 1 1 ctx-rh-inferiorparietal
64.03571319580078 -25.119049072265625 6.619047164916992 1 1 ctx-rh-supramarginal
64.03571319580078 -19.78571319580078 17.28571319580078 1 1 ctx-rh-supramarginal
60.5 -14.125 26.5 1 1 ctx-rh-supramarginal
61.53571319580078 20.839285612106323 -4.785714149475098 1 1 ctx-rh-precentral
66.11904907226562 10.547618865966797 -3.0357141494750977 1 1 ctx-rh-postcentral
72.16666412353516 0.16666603088378906 -1.5 1 1 ctx-rh-supramarginal
55.0 39.25 -12.75 1 1 ctx-rh-parsopercularis
59.875 24.5 -9.0 1 1 ctx-rh-precentral
65.95833587646484 10.5 -5.3333330154418945 1 1 ctx-rh-postcentral
49.46428680419922 44.464284896850586 -20.285714268684387 1 1 ctx-rh-parstriangularis
53.53571319580078 32.0357141494751 -19.21428571641445 1 1 ctx-rh-parsopercularis
2.035714268684387 14.952380895614624 29.380950927734375 1 1 ctx-rh-superiorfrontal
2.5 21.5 31.5 1 1 ctx-rh-superiorfrontal
