22.0 6.0 -31.0 1 1 Right-Amygdala
26.0 5.0 -31.0 1 1 Right-Amygdala
31.0167 3.4912999999999954 -34.0557 1 1 Right-Hippocampus
35.9606 3.658600000000007 -35.292100000000005 1 1 Right-Hippocampus
48.0 6.0 -34.0 1 1 ctx-rh-superiortemporal
54.0 5.0 -41.0 1 1 ctx-rh-middletemporal
57.956500000000005 4.294499999999999 -41.53569999999999 1 1 ctx-rh-middletemporal
63.4444 4.502199999999988 -42.75970000000001 1 1 ctx-rh-middletemporal
21.9837 -4.9968000000000075 -35.72659999999999 1 1 Right-Hippocampus
27.1186 -7.425700000000006 -34.028700000000015 1 1 Right-Hippocampus
31.7106 -9.8951 -32.3434 1 1 Right-Hippocampus
38.0 -16.0 -34.0 1 1 ctx-rh-fusiform
23.0 20.0 -60.0 1 1 ctx-rh-fusiform
34.0 12.0 -65.0 1 1 ctx-rh-inferiortemporal
38.794700000000006 14.043200000000013 -61.73769999999999 1 1 ctx-rh-inferiortemporal
18.2491 1.026299999999992 -37.077499999999986 1 1 Right-Hippocampus
24.014899999999997 1.061399999999992 -36.26650000000001 1 1 Right-Hippocampus
29.337400000000002 1.1269000000000062 -35.50569999999999 1 1 Right-Hippocampus
34.8524 6.836299999999994 -33.91919999999999 1 1 Right-Hippocampus
41.0 9.0 -32.0 1 1 ctx-rh-insula
45.28280000000001 7.009199999999993 -34.790400000000005 1 1 ctx-rh-superiortemporal
26.288899999999998 -1.4851000000000028 -28.52799999999999 1 1 Right-Hippocampus
32.1769 -0.8166999999999973 -28.66550000000001 1 1 Right-Hippocampus
37.616600000000005 -0.5370000000000061 -29.001800000000003 1 1 Right-Hippocampus
36.0 7.0 -64.0 1 1 ctx-rh-inferiortemporal
46.5095 3.6374999999999886 -58.39150000000001 1 1 ctx-rh-inferiortemporal
23.580600000000004 -13.987799999999993 -39.2499 1 1 ctx-rh-parahippocampal
33.6495 -16.0771 -42.15719999999999 1 1 ctx-rh-fusiform
-42.73480000000001 -11.974199999999996 -44.22309999999999 1 1 ctx-lh-fusiform
-45.6917 -4.050299999999993 -50.12280000000001 1 1 ctx-lh-inferiortemporal
-49.77289999999999 3.7450000000000045 -56.0231 1 1 ctx-lh-inferiortemporal
-50.0 26.0 -44.0 1 1 ctx-lh-middletemporal
-49.769000000000005 21.672699999999992 -33.4922 1 1 ctx-lh-superiortemporal
-53.2457 15.134800000000013 -24.155200000000008 1 1 ctx-lh-superiortemporal
-57.46719999999999 6.788000000000011 -44.17779999999999 1 1 ctx-lh-middletemporal
-58.04390000000001 3.9444000000000017 -33.99979999999999 1 1 ctx-lh-middletemporal
-59.0822 -2.2458000000000027 -49.300399999999996 1 1 ctx-lh-inferiortemporal
-60.065799999999996 -6.196300000000008 -38.999300000000005 1 1 ctx-lh-middletemporal
-55.0 -3.0 -29.0 1 1 ctx-lh-superiortemporal
49.4229 21.318399999999997 -68.833 1 1 ctx-rh-inferiortemporal
42.0 3.0 -44.0 1 1 ctx-rh-fusiform
36.4782 -4.9251000000000005 -49.52029999999999 1 1 ctx-rh-fusiform
43.0 -8.0 -48.0 1 1 ctx-rh-fusiform
30.0 28.0 -56.0 1 1 ctx-rh-temporalpole
36.069199999999995 22.24879999999999 -64.37270000000001 1 1 ctx-rh-inferiortemporal
43.25999999999999 14.931000000000012 -67.81459999999998 1 1 ctx-rh-inferiortemporal
33.76509999999999 -8.954800000000006 -30.632299999999987 1 1 Right-Hippocampus
39.3083 -8.034300000000002 -31.330099999999987 1 1 Right-Hippocampus
50.36449999999999 -5.666300000000007 -32.6241 1 1 ctx-rh-middletemporal
-27.0 17.0 -33.0 1 1 ctx-lh-insula
-30.0 17.0 -32.0 1 1 ctx-lh-insula
-34.18799999999999 18.41380000000001 -32.117999999999995 1 1 ctx-lh-insula
-43.0 18.0 -35.0 1 1 ctx-lh-superiortemporal
-18.5668 16.442499999999995 -53.932199999999995 1 1 ctx-lh-entorhinal
-24.0 16.0 -60.0 1 1 ctx-lh-fusiform
-39.739599999999996 15.235899999999987 -62.79089999999999 1 1 ctx-lh-inferiortemporal
-48.60309999999998 16.0702 -56.0249 1 1 ctx-lh-inferiortemporal
-38.0 33.0 -53.0 1 1 ctx-lh-temporalpole
-47.0 28.0 -44.0 1 1 ctx-lh-superiortemporal
-50.73140000000001 16.970499999999987 -41.3639 1 1 ctx-lh-middletemporal
-54.0352 8.228499999999997 -37.39330000000001 1 1 ctx-lh-middletemporal
-38.07589999999999 28.85050000000001 -56.35419999999999 1 1 ctx-lh-temporalpole
-44.0 20.0 -57.0 1 1 ctx-lh-inferiortemporal
-51.238 13.461500000000001 -51.768100000000004 1 1 ctx-lh-middletemporal
-56.0 4.0 -43.0 1 1 ctx-lh-middletemporal
-59.0 -6.0 -40.0 1 1 ctx-lh-middletemporal
-43.69560000000001 4.535500000000013 -32.941900000000004 1 1 ctx-lh-superiortemporal
-48.8689 6.389800000000008 -31.519299999999987 1 1 ctx-lh-superiortemporal
-23.78569999999999 10.700500000000005 -59.9451 1 1 ctx-lh-fusiform
-31.67259999999999 5.152800000000013 -59.66120000000001 1 1 ctx-lh-fusiform
-43.0 1.0 -54.0 1 1 ctx-lh-inferiortemporal
-50.1463 -4.103300000000004 -51.8125 1 1 ctx-lh-inferiortemporal
-57.197299999999984 -8.274900000000002 -45.718999999999994 1 1 ctx-lh-inferiortemporal
-17.304599999999994 11.020800000000008 -39.738200000000006 1 1 Left-Hippocampus
-22.58590000000001 11.955700000000007 -40.8176 1 1 Left-Amygdala
-27.995900000000006 11.784999999999997 -41.46719999999999 1 1 Left-Amygdala
-18.4615 1.0726999999999975 -35.870900000000006 1 1 Left-Hippocampus
-23.342099999999988 0.8496000000000095 -36.537499999999994 1 1 Left-Hippocampus
-28.752099999999984 0.6800000000000068 -37.18729999999999 1 1 Left-Hippocampus
-36.0 0.0 -42.0 1 1 ctx-lh-fusiform
-20.3818 -2.148399999999995 -32.87350000000001 1 1 Left-Hippocampus
-25.852100000000007 -2.6666999999999916 -33.932500000000005 1 1 Left-Hippocampus
-30.732699999999994 -2.8888000000000034 -34.599199999999996 1 1 Left-Hippocampus
-35.0 -5.0 -39.0 1 1 ctx-lh-fusiform
19.3082 4.850599999999986 -42.6138 1 1 Right-Hippocampus
24.373199999999997 4.971800000000002 -43.38669999999999 1 1 Right-Hippocampus
26.825699999999998 -6.271999999999991 -47.46879999999999 1 1 ctx-rh-parahippocampal
36.12819999999999 -6.059200000000004 -52.842100000000016 1 1 ctx-rh-fusiform
34.0 12.0 -66.0 1 1 ctx-rh-inferiortemporal
36.182 10.037800000000004 -67.01760000000002 1 1 ctx-rh-inferiortemporal
25.829800000000006 -0.9211999999999989 -48.54310000000001 1 1 ctx-rh-parahippocampal
30.710399999999993 -0.7985999999999933 -46.8365 1 1 ctx-rh-parahippocampal
35.499300000000005 -0.13649999999999807 -43.8622 1 1 ctx-rh-parahippocampal
39.51349999999999 -12.414600000000007 -46.60249999999999 1 1 ctx-rh-fusiform
24.0 7.0 -55.0 1 1 ctx-rh-entorhinal
36.0 7.0 -64.0 1 1 ctx-rh-inferiortemporal
40.6643 14.5137 -64.5042 1 1 ctx-rh-inferiortemporal
48.21119999999999 8.815300000000008 -60.50659999999999 1 1 ctx-rh-inferiortemporal
51.662800000000004 2.4283000000000072 -52.068100000000015 1 1 ctx-rh-inferiortemporal
56.60900000000001 -3.3603999999999985 -44.754400000000004 1 1 ctx-rh-inferiortemporal
44.0 23.0 -60.0 1 1 ctx-rh-inferiortemporal
50.9363 16.477100000000007 -54.177099999999996 1 1 ctx-rh-inferiortemporal
54.327200000000005 10.572699999999998 -45.7722 1 1 ctx-rh-middletemporal
57.72409999999999 4.591800000000006 -38.49180000000001 1 1 ctx-rh-middletemporal
51.0 29.0 -51.0 1 1 ctx-rh-middletemporal
53.174800000000005 23.972800000000007 -42.2055 1 1 ctx-rh-middletemporal
53.989900000000006 17.672500000000014 -34.97880000000001 1 1 ctx-rh-superiortemporal
55.959599999999995 10.535200000000003 -27.659899999999993 1 1 ctx-rh-superiortemporal
36.1001 -7.184899999999999 -49.60929999999999 1 1 ctx-rh-fusiform
-22.558099999999996 -5.047699999999992 -46.96979999999999 1 1 ctx-lh-parahippocampal
-39.0 3.0 -53.0 1 1 ctx-lh-inferiortemporal
-38.0 4.0 -58.0 1 1 ctx-lh-inferiortemporal
-54.3237 22.4966 -39.44669999999999 1 1 ctx-lh-middletemporal
-55.0 17.0 -29.0 1 1 ctx-lh-superiortemporal
-48.63159999999999 18.392200000000003 -54.025800000000004 1 1 ctx-lh-middletemporal
-53.8946 12.080000000000013 -49.20169999999999 1 1 ctx-lh-middletemporal
-56.8023 6.373199999999997 -41.280399999999986 1 1 ctx-lh-middletemporal
-43.84790000000001 10.361700000000013 -59.75749999999999 1 1 ctx-lh-inferiortemporal
-51.427400000000006 4.1950999999999965 -55.8562 1 1 ctx-lh-inferiortemporal
-60.0 1.0 -45.0 1 1 ctx-lh-middletemporal
-59.0 -9.0 -40.0 1 1 ctx-lh-middletemporal
37.27879999999999 54.5394 5.248500000000007 1 1 ctx-rh-insula
40.4598 55.89750000000001 8.593000000000004 1 1 ctx-rh-parstriangularis
43.244 57.53820000000002 13.140600000000006 1 1 ctx-rh-rostralmiddlefrontal
30.890699999999995 57.2174 1.3558000000000021 1 1 ctx-rh-rostralmiddlefrontal
31.48400000000001 61.0487 4.667699999999996 1 1 ctx-rh-rostralmiddlefrontal
33.66159999999999 29.49260000000001 -5.606200000000001 1 1 ctx-rh-rostralmiddlefrontal
29.95179999999999 38.837999999999994 -14.079100000000011 1 1 ctx-rh-rostralmiddlefrontal
32.625 41.11949999999999 -10.390299999999996 1 1 ctx-rh-rostralmiddlefrontal
35.68430000000001 43.58250000000001 -7.756499999999988 1 1 ctx-rh-rostralmiddlefrontal
38.8442 45.86930000000001 -4.113900000000001 1 1 ctx-rh-rostralmiddlefrontal
42.01480000000001 47.691 -0.6193999999999846 1 1 ctx-rh-rostralmiddlefrontal
45.06360000000001 50.61849999999998 2.1637000000000057 1 1 ctx-rh-rostralmiddlefrontal
20.252200000000002 72.32390000000001 -31.45580000000001 1 1 ctx-rh-rostralmiddlefrontal
20.299999999999997 70.04329999999999 -26.817000000000007 1 1 ctx-rh-rostralmiddlefrontal
24.0 69.0 -18.0 1 1 ctx-rh-rostralmiddlefrontal
20.92 63.6703 -12.79849999999999 1 1 ctx-rh-rostralmiddlefrontal
20.866199999999992 61.56620000000001 -9.167200000000008 1 1 ctx-rh-rostralmiddlefrontal
20.914 59.28559999999999 -4.528400000000005 1 1 ctx-rh-superiorfrontal
30.5081 48.91040000000001 -18.441100000000006 1 1 ctx-rh-caudalmiddlefrontal
35.0013 48.31569999999999 -17.995599999999996 1 1 ctx-rh-caudalmiddlefrontal
39.98169999999999 47.72569999999999 -17.595400000000012 1 1 ctx-rh-caudalmiddlefrontal
44.0 -19.0 21.0 1 1 ctx-rh-precentral
49.296099999999996 17.334599999999995 29.805300000000003 1 1 ctx-rh-precentral
52.487899999999996 18.22829999999999 33.0008 1 1 ctx-rh-precentral
25.0 6.0 -47.0 1 1 Right-Hippocampus
29.0 7.0 -47.0 1 1 Right-Hippocampus
35.0 8.0 -46.0 1 1 Right-Hippocampus
-49.38290000000001 25.794700000000006 -21.28030000000001 1 1 ctx-lh-precentral
-47.95920000000001 28.663999999999987 -39.9957 1 1 ctx-lh-superiortemporal
-51.23609999999999 22.064600000000013 -31.43039999999999 1 1 ctx-lh-superiortemporal
-52.859399999999994 15.005099999999999 -23.844300000000004 1 1 ctx-lh-superiortemporal
-46.0 23.0 -46.0 1 1 ctx-lh-superiortemporal
-52.51859999999999 14.606799999999993 -40.663399999999996 1 1 ctx-lh-middletemporal
-54.649 7.45750000000001 -33.09450000000001 1 1 ctx-lh-middletemporal
-51.41749999999999 8.7303 -51.301500000000004 1 1 ctx-lh-middletemporal
-55.2132 2.2469000000000108 -44.01169999999999 1 1 ctx-lh-middletemporal
-48.92240000000001 0.29419999999998936 -58.81540000000001 1 1 ctx-lh-inferiortemporal
-53.86349999999999 -5.640699999999995 -50.5299 1 1 ctx-lh-inferiortemporal
-23.36420000000001 7.319400000000002 -62.200800000000015 1 1 ctx-lh-fusiform
-37.0 7.0 -66.0 1 1 ctx-lh-inferiortemporal
-44.028700000000015 6.286200000000008 -64.6985 1 1 ctx-lh-inferiortemporal
22.024900000000002 9.879500000000007 -55.95570000000001 1 1 ctx-rh-entorhinal
30.778899999999993 9.811200000000014 -63.14099999999999 1 1 ctx-rh-fusiform
41.0874 10.31989999999999 -64.01509999999999 1 1 ctx-rh-inferiortemporal
31.0 5.0 -32.0 1 1 Right-Amygdala
34.0 3.0 -29.0 1 1 Right-Putamen
41.0 3.0 -28.0 1 1 ctx-rh-insula
35.247 2.3463999999999885 -41.38810000000001 1 1 Right-Hippocampus
30.0 -11.0 -34.0 1 1 Right-Hippocampus
35.0 -11.0 -34.0 1 1 Right-Hippocampus
40.1828 -11.5364 -34.1105 1 1 Right-Hippocampus
27.0 -8.0 -44.0 1 1 ctx-rh-parahippocampal
38.0 -9.0 -39.0 1 1 ctx-rh-parahippocampal
-3.936000000000007 49.9024 -4.052999999999997 1 1 ctx-lh-rostralanteriorcingulate
-9.973500000000001 50.181700000000006 -4.215599999999995 1 1 ctx-lh-rostralanteriorcingulate
-27.972199999999987 -46.227900000000005 -4.992999999999995 1 1 Left-Hippocampus
-29.0 -57.0 0.0 1 1 Left-Hippocampus
-29.26079999999999 -3.7946000000000026 -30.581199999999995 1 1 Left-Hippocampus
-62.93270000000001 -18.87129999999999 -25.737099999999998 1 1 ctx-lh-inferiorparietal
-27.029799999999994 6.5471 -33.86240000000001 1 1 Left-Amygdala
-37.19400000000002 2.264800000000008 -30.32249999999999 1 1 ctx-lh-insula
-30.746100000000013 -2.2754000000000048 -30.015899999999988 1 1 Left-Hippocampus
-35.3186 -5.647199999999998 -28.293000000000006 1 1 Left-Hippocampus
-30.55109999999999 -20.1563 -19.324099999999987 1 1 Left-Hippocampus
40.0 21.0 6.0 1 1 ctx-rh-parsopercularis
44.97829999999999 15.918299999999988 6.218900000000005 1 1 ctx-rh-precentral
38.0 16.0 -20.0 1 1 ctx-rh-insula
37.0 15.0 -13.0 1 1 ctx-rh-insula
-13.09899999999999 7.744699999999995 -36.29249999999999 1 1 Left-Hippocampus
-18.0 8.0 -36.0 1 1 Left-Amygdala
-25.0 7.0 -37.0 1 1 Left-Amygdala
-29.0 8.0 -36.0 1 1 Left-Amygdala
-34.398799999999994 4.571799999999996 -37.9965 1 1 Left-Hippocampus
-18.908299999999997 1.5494999999999948 -30.099400000000003 1 1 Left-Hippocampus
-23.91579999999999 -0.5519000000000034 -28.739499999999992 1 1 Left-Hippocampus
-29.0 -4.0 -30.0 1 1 Left-Hippocampus
36.3874 29.45150000000001 -18.439999999999998 1 1 Right-Hippocampus
36.120000000000005 29.985199999999992 -12.269299999999987 1 1 Right-Hippocampus
35.2915 30.911599999999993 -7.113499999999988 1 1 Right-Hippocampus
35.04480000000001 31.861199999999997 -1.9394000000000062 1 1 ctx-rh-entorhinal
34.1626 32.8939 4.450900000000004 1 1 Right-Hippocampus
-14.0 10.0 -37.0 1 1 Left-Amygdala
-19.66919999999999 8.847800000000007 -39.39959999999999 1 1 Left-Amygdala
-24.89869999999999 9.952300000000008 -41.259000000000015 1 1 Left-Amygdala
-30.175600000000003 10.541200000000003 -43.024400000000014 1 1 Left-Amygdala
-35.0 7.0 -45.0 1 1 ctx-lh-fusiform
-46.0077 13.038299999999992 -47.130600000000015 1 1 ctx-lh-middletemporal
-51.28450000000001 13.627100000000013 -48.8973 1 1 ctx-lh-middletemporal
-56.564099999999996 14.945400000000006 -49.471599999999995 1 1 ctx-lh-middletemporal
-16.711700000000008 -6.373199999999997 -36.39609999999999 1 1 Left-Hippocampus
-21.94229999999999 -5.267399999999995 -38.2543 1 1 Left-Hippocampus
-27.221900000000005 -3.9480999999999966 -38.8287 1 1 Left-Hippocampus
-32.502399999999994 -2.6289000000000016 -39.40440000000001 1 1 Left-Hippocampus
-37.19460000000001 -1.5519999999999925 -41.223900000000015 1 1 ctx-lh-fusiform
-47.80109999999999 0.5686000000000035 -42.2809 1 1 ctx-lh-middletemporal
-53.0317 1.6744999999999948 -44.13919999999999 1 1 ctx-lh-inferiortemporal
-59.0 3.0 -44.0 1 1 ctx-lh-middletemporal
-62.0 2.0 -44.0 1 1 ctx-lh-middletemporal
-23.565699999999993 -12.747 -29.012599999999992 1 1 Left-Hippocampus
-28.93780000000001 -12.461500000000001 -29.401099999999985 1 1 Left-Hippocampus
-34.259900000000016 -12.390600000000006 -31.074700000000007 1 1 Left-Hippocampus
-39.5831 -12.318399999999997 -32.74719999999999 1 1 Left-Hippocampus
-44.954999999999984 -12.033000000000001 -33.1369 1 1 ctx-lh-inferiortemporal
-43.1079 18.657399999999996 -21.462199999999996 1 1 ctx-lh-insula
-49.06360000000001 18.453900000000004 -21.797799999999995 1 1 ctx-lh-superiortemporal
-53.895700000000005 17.9803 -23.338599999999985 1 1 ctx-lh-superiortemporal
-59.0 14.0 -30.0 1 1 ctx-lh-middletemporal
-62.0 13.0 -30.0 1 1 ctx-lh-middletemporal
-15.212299999999999 11.700400000000002 -40.783799999999985 1 1 Left-Amygdala
-20.6533 11.165400000000005 -39.21039999999999 1 1 Left-Amygdala
-26.147899999999993 11.2671 -38.6679 1 1 Left-Amygdala
-31.589 10.730799999999988 -37.094300000000004 1 1 Left-Amygdala
-37.0 12.0 -34.0 1 1 ctx-lh-insula
-26.0 7.0 -37.0 1 1 Left-Amygdala
-31.72980000000001 1.7134000000000071 -37.37950000000001 1 1 Left-Hippocampus
-36.44470000000001 -1.0168999999999926 -35.90219999999999 1 1 Left-Hippocampus
-35.0 -3.0 -35.0 1 1 Left-Hippocampus
-21.0 -16.0 -30.0 1 1 Left-Hippocampus
-26.0 -18.0 -30.0 1 1 Left-Hippocampus
-31.0 -20.0 -28.0 1 1 Left-Hippocampus
-35.0 -20.0 -28.0 1 1 Left-Hippocampus
44.1451 12.002600000000001 -36.820899999999995 1 1 ctx-rh-superiortemporal
50.0 11.0 -39.0 1 1 ctx-rh-middletemporal
54.8318 12.26400000000001 -38.944199999999995 1 1 ctx-rh-middletemporal
60.90440000000001 12.233800000000002 -39.4196 1 1 ctx-rh-middletemporal
31.535200000000003 -0.9296999999999969 -42.575199999999995 1 1 Right-Hippocampus
36.7068 -2.2021000000000015 -41.26159999999999 1 1 ctx-rh-parahippocampal
41.87780000000001 -3.474199999999996 -39.946799999999996 1 1 ctx-rh-fusiform
47.0488 -4.746300000000005 -38.63220000000001 1 1 ctx-rh-inferiortemporal
52.1846 -6.5327000000000055 -37.453900000000004 1 1 ctx-rh-inferiortemporal
57.3558 -7.805199999999999 -36.140299999999996 1 1 ctx-rh-middletemporal
62.674800000000005 -8.941400000000002 -35.87719999999999 1 1 ctx-rh-middletemporal
38.81399999999999 31.580299999999994 -56.57830000000001 1 1 ctx-rh-middletemporal
40.7672 26.738100000000003 -54.316100000000006 1 1 ctx-rh-middletemporal
42.755300000000005 22.41040000000001 -51.91739999999999 1 1 ctx-rh-middletemporal
45.0 18.0 -51.0 1 1 ctx-rh-middletemporal
46.344300000000004 13.95429999999999 -48.21260000000001 1 1 ctx-rh-inferiortemporal
48.33250000000001 9.627600000000001 -45.81399999999999 1 1 ctx-rh-inferiortemporal
49.933099999999996 5.498500000000007 -44.506699999999995 1 1 ctx-rh-inferiortemporal
52.42179999999999 0.5935000000000059 -42.2047 1 1 ctx-rh-inferiortemporal
53.8745 -3.6717000000000013 -39.8468 1 1 ctx-rh-inferiortemporal
57.0 -8.0 -37.0 1 1 ctx-rh-middletemporal
57.0 -11.0 -35.0 1 1 ctx-rh-middletemporal
-18.800299999999993 9.685200000000009 -33.25110000000001 1 1 Left-Amygdala
-25.1344 -0.026600000000001955 -28.99430000000001 1 1 Left-Hippocampus
23.239999999999995 11.084800000000001 54.552800000000005 1 1 ctx-rh-superiorfrontal
23.377200000000002 11.280200000000008 61.1964 1 1 ctx-rh-superiorfrontal
23.013400000000004 -7.5075999999999965 50.5312 1 1 ctx-rh-precentral
23.0 -6.0 55.0 1 1 ctx-rh-precentral
20.0 -5.0 58.0 1 1 ctx-rh-precentral
-16.468700000000013 12.056099999999986 -31.67240000000001 1 1 Left-Amygdala
-21.518100000000004 11.851499999999987 -31.34039999999999 1 1 Left-Amygdala
-19.13730000000001 9.281599999999997 -31.05539999999999 1 1 Left-Amygdala
-24.103999999999985 7.480799999999988 -30.463799999999992 1 1 Left-Amygdala
-28.50890000000001 5.701899999999995 -29.909099999999995 1 1 Left-Putamen
-21.0 12.0 -27.0 1 1 Left-Pallidum
-27.004700000000014 11.288900000000012 -31.85929999999999 1 1 Left-Amygdala
-32.3064 9.940400000000011 -35.35329999999999 1 1 Left-Amygdala
-20.0 8.0 -40.0 1 1 Left-Hippocampus
-25.4726 5.746000000000009 -38.0496 1 1 Left-Hippocampus
-30.443700000000007 3.489699999999999 -35.6867 1 1 Left-Hippocampus
-36.12540000000001 0.759600000000006 -34.44399999999999 1 1 Left-Hippocampus
-41.20089999999999 -2.1113 -33.162000000000006 1 1 ctx-lh-fusiform
-26.2654 -15.75569999999999 -28.71719999999999 1 1 Left-Hippocampus
-31.3408 -18.627800000000008 -27.434699999999992 1 1 Left-Hippocampus
-35.0 19.0 -41.0 1 1 ctx-lh-insula
-41.0 0.0 -41.0 1 1 ctx-lh-fusiform
-41.60070000000002 -4.032499999999999 -32.955899999999986 1 1 ctx-lh-fusiform
-44.1463 -10.152999999999992 -32.34960000000001 1 1 ctx-lh-fusiform
25.606499999999997 0.37520000000000664 -37.28370000000001 1 1 Right-Hippocampus
31.009600000000006 0.4282000000000039 -35.304 1 1 Right-Hippocampus
36.435599999999994 -0.019100000000008777 -33.48769999999999 1 1 Right-Hippocampus
27.721900000000005 -9.1314 -28.249799999999993 1 1 Right-Hippocampus
32.1803 -12.569699999999997 -27.5419 1 1 Right-Hippocampus
37.0 -20.0 -30.0 1 1 ctx-rh-fusiform
-0.36660000000000537 56.54509999999999 -21.621800000000007 1 1 ctx-lh-rostralanteriorcingulate
-2.140899999999988 57.7029 -16.963099999999997 1 1 ctx-lh-rostralanteriorcingulate
-2.9499999999999886 58.70099999999999 -11.254199999999997 1 1 ctx-lh-rostralanteriorcingulate
-4.1521999999999935 59.553200000000004 -5.54140000000001 1 1 ctx-lh-superiorfrontal
-5.0 54.0 -7.0 1 1 ctx-lh-rostralanteriorcingulate
-6.4465999999999894 60.95150000000001 4.734499999999997 1 1 ctx-lh-superiorfrontal
-2.0 47.0 -1.0 1 1 ctx-lh-caudalanteriorcingulate
-3.0 49.0 1.0 1 1 ctx-lh-caudalanteriorcingulate
-7.5214 49.64089999999999 4.736099999999993 1 1 ctx-lh-caudalanteriorcingulate
-12.010400000000004 50.82130000000001 7.301299999999998 1 1 ctx-lh-superiorfrontal
23.0 -3.0 -41.0 1 1 Right-Hippocampus
26.821699999999993 -4.403599999999997 -41.82560000000001 1 1 Right-Hippocampus
31.0 -3.0 -41.0 1 1 Right-Hippocampus
37.5633 -4.157299999999992 -43.0958 1 1 ctx-rh-fusiform
44.0 -2.0 -42.0 1 1 ctx-rh-inferiortemporal
22.0 12.0 -44.0 1 1 Right-Amygdala
26.389499999999998 9.017300000000006 -42.7646 1 1 Right-Hippocampus
31.186000000000007 6.759299999999996 -43.15729999999999 1 1 Right-Hippocampus
35.9829 4.501200000000011 -43.54990000000001 1 1 Right-Hippocampus
42.0 4.0 -44.0 1 1 ctx-rh-inferiortemporal
30.0552 -14.311700000000002 -30.730099999999993 1 1 Right-Hippocampus
34.1609 -16.587400000000002 -32.2346 1 1 ctx-rh-parahippocampal
38.8257 -19.521900000000002 -33.7568 1 1 ctx-rh-fusiform
42.93180000000001 -21.798599999999993 -35.2611 1 1 ctx-rh-fusiform
32.2885 -25.8643 -36.107 1 1 ctx-rh-fusiform
19.453100000000006 13.230400000000003 -33.9504 1 1 Right-Amygdala
24.193200000000004 13.451699999999988 -34.98660000000001 1 1 Right-Amygdala
29.456900000000005 13.669700000000006 -36.01650000000001 1 1 Right-Amygdala
34.74209999999999 13.6704 -38.2713 1 1 Right-Amygdala
39.4824 13.892599999999987 -39.307500000000005 1 1 ctx-rh-insula
44.745900000000006 14.109700000000004 -40.33850000000001 1 1 ctx-rh-superiortemporal
50.0403 14.590000000000003 -42.454200000000014 1 1 ctx-rh-middletemporal
38.13419999999999 2.0888999999999953 -39.2559 1 1 Right-Hippocampus
56.0 3.0 -40.0 1 1 ctx-rh-middletemporal
59.5701 0.9396999999999878 -39.30959999999999 1 1 ctx-rh-middletemporal
29.311099999999996 -9.314400000000006 -32.21350000000001 1 1 Right-Hippocampus
34.5351 -9.840400000000002 -32.29769999999999 1 1 Right-Hippocampus
39.758700000000005 -10.365499999999997 -32.38210000000001 1 1 Right-Hippocampus
41.7517 28.635899999999992 -30.363799999999998 1 1 ctx-rh-insula
46.544700000000006 28.905200000000008 -33.7097 1 1 ctx-rh-superiortemporal
51.30680000000001 28.911200000000008 -35.96979999999999 1 1 ctx-rh-superiortemporal
36.0 12.0 -25.0 1 1 ctx-rh-insula
40.1275 10.458100000000002 -25.189999999999998 1 1 ctx-rh-insula
47.0 8.0 -27.0 1 1 ctx-rh-superiortemporal
-24.037199999999984 12.560399999999987 -29.785200000000003 1 1 Left-Amygdala
-17.72380000000001 0.0625 -29.162299999999988 1 1 Left-Hippocampus
-22.64330000000001 2.75030000000001 -36.82409999999999 1 1 Left-Hippocampus
-27.729299999999995 3.1835000000000093 -35.19130000000001 1 1 Left-Hippocampus
-32.8588 3.772999999999996 -34.67599999999999 1 1 Left-Hippocampus
-25.016400000000004 -9.026700000000005 -34.8999 1 1 Left-Hippocampus
-29.58959999999999 -9.109099999999998 -33.43020000000001 1 1 Left-Hippocampus
21.740899999999996 11.9897 -37.620900000000006 1 1 Right-Amygdala
27.352800000000002 11.404799999999994 -36.60730000000001 1 1 Right-Amygdala
33.4551 11.523500000000013 -36.5625 1 1 Right-Amygdala
31.914100000000005 -3.005899999999997 -34.730500000000006 1 1 Right-Hippocampus
37.50880000000001 -3.0668000000000006 -33.57329999999999 1 1 Right-Hippocampus
31.564999999999998 -12.226200000000006 -24.458699999999993 1 1 Right-Hippocampus
36.7205 -14.565300000000008 -22.76339999999999 1 1 Right-Hippocampus
18.511399999999995 51.4025 -34.77619999999999 1 1 ctx-rh-lateralorbitofrontal
19.5723 51.058099999999996 -28.998899999999992 1 1 ctx-rh-lateralorbitofrontal
-16.043800000000005 9.657199999999989 -36.0137 1 1 Left-Amygdala
-21.47739999999999 8.536699999999996 -34.6267 1 1 Left-Amygdala
-29.0 10.0 -55.0 1 1 ctx-lh-entorhinal
-33.0 21.0 -55.0 1 1 ctx-lh-temporalpole
-41.19200000000001 11.732699999999994 -49.743300000000005 1 1 ctx-lh-inferiortemporal
-45.6592 12.498099999999994 -47.39500000000001 1 1 ctx-lh-middletemporal
-50.17959999999999 13.828699999999998 -45.0797 1 1 ctx-lh-middletemporal
-55.17150000000001 14.59620000000001 -41.595 1 1 ctx-lh-middletemporal
-22.521299999999997 19.699099999999987 -53.565 1 1 ctx-lh-entorhinal
-27.957400000000007 19.301299999999998 -53.0172 1 1 ctx-lh-entorhinal
-33.0 21.0 -55.0 1 1 ctx-lh-temporalpole
-39.22809999999998 18.336600000000004 -53.114900000000006 1 1 ctx-lh-inferiortemporal
-43.0 17.0 -53.0 1 1 ctx-lh-inferiortemporal
-50.6447 17.0342 -52.0487 1 1 ctx-lh-middletemporal
20.48400000000001 12.82589999999999 -41.38249999999999 1 1 Right-Amygdala
26.1541 12.746499999999997 -40.725300000000004 1 1 Right-Amygdala
31.8664 12.19149999999999 -40.0547 1 1 Right-Amygdala
43.248999999999995 11.556099999999986 -38.725599999999986 1 1 ctx-rh-superiortemporal
48.77940000000001 11.329399999999993 -39.279799999999994 1 1 ctx-rh-superiortemporal
54.4918 10.774499999999989 -38.608000000000004 1 1 ctx-rh-middletemporal
60.1618 10.693900000000014 -37.95070000000001 1 1 ctx-rh-middletemporal
26.0 25.0 -56.0 1 1 ctx-rh-temporalpole
34.0 28.0 -55.0 1 1 ctx-rh-temporalpole
38.0 29.0 -56.0 1 1 ctx-rh-temporalpole
56.532 24.040600000000012 -57.794399999999996 1 1 ctx-rh-middletemporal
57.128 24.685000000000002 -56.64959999999999 1 1 ctx-rh-middletemporal
45.5219 29.09450000000001 -24.8767 1 1 ctx-rh-insula
51.411699999999996 28.744200000000006 -26.692000000000007 1 1 ctx-rh-superiortemporal
56.303799999999995 28.348600000000005 -28.40549999999999 1 1 ctx-rh-superiortemporal
62.2359 27.52260000000001 -30.20750000000001 1 1 ctx-rh-superiortemporal
